<svg width="138" height="18" viewBox="0 0 138 18" fill="none" xmlns="http://www.w3.org/2000/svg">
<path d="M3.70506 9.49646H6.86602C7.19421 9.49646 7.51376 9.42857 7.82468 9.29279C8.15286 9.14003 8.43787 8.92787 8.67969 8.65629C8.93879 8.38472 9.14606 8.07072 9.30152 7.71429C9.47425 7.34088 9.56062 6.93352 9.56062 6.49222C9.56062 6 9.45698 5.57567 9.2497 5.21924C9.04243 4.84583 8.79197 4.5488 8.49832 4.32815C8.22196 4.09052 7.92832 3.92079 7.6174 3.81895C7.32376 3.70014 7.09057 3.64074 6.91784 3.64074H3.70506V9.49646ZM3.70506 13.1372V17.6945H0V0H6.81421C7.88513 0 8.82651 0.161245 9.63834 0.483734C10.4502 0.78925 11.1238 1.23055 11.6593 1.80764C12.212 2.38472 12.6179 3.07214 12.877 3.86987C13.1534 4.65064 13.2916 5.51627 13.2916 6.46676C13.2916 7.41726 13.162 8.29986 12.9029 9.11457C12.6611 9.91231 12.2725 10.6167 11.737 11.2277C11.2188 11.8218 10.5452 12.2885 9.71607 12.628C8.90424 12.9675 7.93695 13.1372 6.81421 13.1372H3.70506Z" fill="#332455"/>
<path d="M24.7331 11.5842L24.759 11.075C24.7417 10.6506 24.6467 10.2433 24.474 9.8529C24.3012 9.46252 24.0594 9.13154 23.7485 8.85997C23.4549 8.57143 23.1094 8.34229 22.7121 8.17256C22.3148 8.00283 21.8917 7.91796 21.4426 7.91796C21.0107 7.91796 20.5962 8.00283 20.1989 8.17256C19.8189 8.32532 19.4821 8.54597 19.1884 8.83451C18.8948 9.10608 18.653 9.42857 18.463 9.80198C18.2902 10.1584 18.1952 10.5488 18.178 10.9731V17.6945H14.4729V0H18.178V5.57567C18.5234 5.1174 18.9984 4.77794 19.603 4.55728C20.2248 4.33663 20.838 4.22631 21.4426 4.22631C22.4099 4.22631 23.3167 4.40453 24.1631 4.76096C25.0094 5.1174 25.7522 5.60962 26.3913 6.23762C27.0304 6.84866 27.5313 7.57001 27.894 8.4017C28.2568 9.23338 28.4381 10.1245 28.4381 11.075V17.6945H24.7331V11.5842Z" fill="#332455"/>
<path d="M36.4709 4.22631C37.4382 4.22631 38.345 4.40453 39.1914 4.76096C40.055 5.1174 40.7978 5.60962 41.4196 6.23762C42.0587 6.84866 42.5596 7.57001 42.9224 8.4017C43.3024 9.23338 43.4924 10.1245 43.4924 11.075C43.4924 12.0255 43.311 12.925 42.9483 13.7737C42.6028 14.6054 42.1105 15.3352 41.4714 15.9632C40.8496 16.5743 40.1155 17.0665 39.2691 17.4399C38.4227 17.8133 37.5159 18 36.5486 18C35.5813 18 34.6659 17.8218 33.8022 17.4653C32.9558 17.1089 32.2131 16.6252 31.574 16.0141C30.9349 15.3861 30.4253 14.6563 30.0453 13.8246C29.6826 12.9929 29.5012 12.1018 29.5012 11.1513C29.5012 10.2008 29.674 9.30976 30.0194 8.47808C30.3822 7.62942 30.8744 6.89958 31.4963 6.28854C32.1354 5.66054 32.8781 5.15983 33.7245 4.78642C34.5881 4.41301 35.5036 4.22631 36.4709 4.22631ZM38.8287 13.4173C39.4678 12.7892 39.7873 12.0255 39.7873 11.1259C39.7873 10.6846 39.701 10.2687 39.5282 9.87836C39.3555 9.48798 39.1137 9.14003 38.8028 8.83451C38.1464 8.22348 37.3691 7.91796 36.4709 7.91796C35.5727 7.91796 34.8041 8.23197 34.165 8.85997C33.5258 9.52192 33.2063 10.2857 33.2063 11.1513C33.2063 12.0339 33.5345 12.7977 34.1909 13.4427C34.83 14.0707 35.6072 14.3847 36.5227 14.3847C36.9718 14.3678 37.395 14.2829 37.7923 14.1301C38.1896 13.9604 38.535 13.7228 38.8287 13.4173Z" fill="#332455"/>
<path d="M47.5634 17.6945V8.22348H44.5579V4.58274H47.5634V0H51.2685V4.58274H54.3776V8.22348H51.2685V17.6945H47.5634Z" fill="#332455"/>
<path d="M62.3804 4.22631C63.3477 4.22631 64.2545 4.40453 65.1009 4.76096C65.9646 5.1174 66.7073 5.60962 67.3291 6.23762C67.9682 6.84866 68.4692 7.57001 68.8319 8.4017C69.2119 9.23338 69.4019 10.1245 69.4019 11.075C69.4019 12.0255 69.2205 12.925 68.8578 13.7737C68.5123 14.6054 68.0201 15.3352 67.381 15.9632C66.7591 16.5743 66.025 17.0665 65.1786 17.4399C64.3323 17.8133 63.4254 18 62.4582 18C61.4909 18 60.5754 17.8218 59.7117 17.4653C58.8654 17.1089 58.1226 16.6252 57.4835 16.0141C56.8444 15.3861 56.3349 14.6563 55.9549 13.8246C55.5921 12.9929 55.4108 12.1018 55.4108 11.1513C55.4108 10.2008 55.5835 9.30976 55.9289 8.47808C56.2917 7.62942 56.784 6.89958 57.4058 6.28854C58.0449 5.66054 58.7876 5.15983 59.634 4.78642C60.4977 4.41301 61.4131 4.22631 62.3804 4.22631ZM64.7382 13.4173C65.3773 12.7892 65.6968 12.0255 65.6968 11.1259C65.6968 10.6846 65.6105 10.2687 65.4378 9.87836C65.265 9.48798 65.0232 9.14003 64.7123 8.83451C64.0559 8.22348 63.2786 7.91796 62.3804 7.91796C61.4822 7.91796 60.7136 8.23197 60.0745 8.85997C59.4354 9.52192 59.1158 10.2857 59.1158 11.1513C59.1158 12.0339 59.444 12.7977 60.1004 13.4427C60.7395 14.0707 61.5168 14.3847 62.4322 14.3847C62.8813 14.3678 63.3045 14.2829 63.7018 14.1301C64.0991 13.9604 64.4445 13.7228 64.7382 13.4173Z" fill="#332455"/>
<path d="M70.6747 11.8642V8.24894H79.5358V11.8642H70.6747Z" fill="#332455"/>
<path d="M84.4699 9.49646H87.6309C87.9591 9.49646 88.2786 9.42857 88.5895 9.29279C88.9177 9.14003 89.2027 8.92787 89.4445 8.65629C89.7036 8.38472 89.9109 8.07072 90.0664 7.71429C90.2391 7.34088 90.3255 6.93352 90.3255 6.49222C90.3255 6 90.2218 5.57567 90.0145 5.21924C89.8073 4.84583 89.5568 4.5488 89.2632 4.32815C88.9868 4.09052 88.6932 3.92079 88.3822 3.81895C88.0886 3.70014 87.8554 3.64074 87.6827 3.64074H84.4699V9.49646ZM84.4699 13.1372V17.6945H80.7648V0H87.5791C88.65 0 89.5914 0.161245 90.4032 0.483734C91.215 0.78925 91.8887 1.23055 92.4241 1.80764C92.9769 2.38472 93.3828 3.07214 93.6419 3.86987C93.9183 4.65064 94.0564 5.51627 94.0564 6.46676C94.0564 7.41726 93.9269 8.29986 93.6678 9.11457C93.426 9.91231 93.0373 10.6167 92.5019 11.2277C91.9837 11.8218 91.31 12.2885 90.4809 12.628C89.6691 12.9675 88.7018 13.1372 87.5791 13.1372H84.4699Z" fill="#332455"/>
<path d="M102.959 7.91796C101.801 7.93494 100.851 8.24045 100.109 8.83451C99.3833 9.4116 98.9946 10.1245 98.9428 10.9731V17.6945H95.2377V4.58274H98.9428V5.57567C99.2883 5.1174 99.7806 4.77794 100.42 4.55728C101.059 4.33663 101.905 4.22631 102.959 4.22631V7.91796Z" fill="#332455"/>
<path d="M107.723 17.6945H104.018V4.58274H107.723V17.6945ZM103.94 1.88402C103.94 1.34088 104.121 0.891089 104.484 0.534654C104.864 0.178218 105.33 0 105.883 0C106.436 0 106.894 0.178218 107.256 0.534654C107.619 0.891089 107.8 1.34088 107.8 1.88402C107.8 2.42716 107.619 2.88543 107.256 3.25884C106.894 3.61528 106.436 3.79349 105.883 3.79349C105.33 3.79349 104.864 3.61528 104.484 3.25884C104.121 2.88543 103.94 2.42716 103.94 1.88402Z" fill="#332455"/>
<path d="M108.825 11.2023C108.825 10.2518 109.006 9.35219 109.369 8.50354C109.732 7.65488 110.233 6.91655 110.872 6.28854C111.511 5.64356 112.254 5.14286 113.1 4.78642C113.947 4.41301 114.853 4.22631 115.821 4.22631C116.114 4.22631 116.425 4.25177 116.753 4.30269C117.082 4.35361 117.392 4.43847 117.686 4.55728C117.997 4.6761 118.273 4.84583 118.515 5.06648C118.757 5.27016 118.947 5.52475 119.085 5.83027V0H122.79V17.6945H119.085V16.7016C118.74 17.1598 118.256 17.4908 117.634 17.6945C117.03 17.8982 116.425 18 115.821 18C114.853 18 113.947 17.8303 113.1 17.4908C112.254 17.1344 111.511 16.6506 110.872 16.0396C110.233 15.4286 109.732 14.7072 109.369 13.8755C109.006 13.0438 108.825 12.1528 108.825 11.2023ZM115.872 14.3593C116.304 14.3593 116.71 14.2829 117.09 14.1301C117.487 13.9604 117.833 13.7397 118.127 13.4682C118.42 13.1796 118.653 12.8571 118.826 12.5007C118.999 12.1273 119.103 11.7284 119.137 11.3041V11.024C119.103 10.5997 118.999 10.2093 118.826 9.8529C118.653 9.47949 118.42 9.157 118.127 8.88543C117.833 8.59689 117.487 8.37624 117.09 8.22348C116.71 8.05375 116.304 7.96888 115.872 7.96888C115.441 7.96888 115.026 8.04526 114.629 8.19802C114.249 8.35078 113.912 8.56294 113.618 8.83451C113.325 9.10608 113.083 9.42857 112.893 9.80198C112.72 10.1584 112.616 10.5403 112.582 10.9477L112.556 11.1513L112.582 11.355C112.616 11.7624 112.72 12.1528 112.893 12.5262C113.083 12.8826 113.325 13.1966 113.618 13.4682C113.912 13.7397 114.249 13.9604 114.629 14.1301C115.026 14.2829 115.441 14.3593 115.872 14.3593Z" fill="#332455"/>
<path d="M128.051 12.5516C128.189 12.8402 128.405 13.1372 128.698 13.4427C129.338 14.0707 130.115 14.3847 131.03 14.3847C131.739 14.3678 132.378 14.1556 132.948 13.7482L136.16 15.7595C135.539 16.4554 134.787 17.0071 133.906 17.4144C133.043 17.8048 132.093 18 131.056 18C130.089 18 129.173 17.8218 128.31 17.4653C127.463 17.1089 126.721 16.6252 126.082 16.0141C125.443 15.3861 124.933 14.6563 124.553 13.8246C124.19 12.9929 124.009 12.1018 124.009 11.1513C124.009 10.2008 124.19 9.30976 124.553 8.47808C124.916 7.62942 125.408 6.89109 126.03 6.26308C126.652 5.63508 127.386 5.14286 128.232 4.78642C129.078 4.41301 129.994 4.22631 130.979 4.22631C131.946 4.22631 132.853 4.40453 133.699 4.76096C134.563 5.1174 135.305 5.60962 135.927 6.23762C136.566 6.84866 137.067 7.57001 137.43 8.4017C137.81 9.23338 138 10.1245 138 11.075C138 11.5842 137.948 12.0764 137.845 12.5516H128.051ZM130.979 7.91796C130.08 7.91796 129.312 8.23197 128.673 8.85997C128.293 9.26733 128.025 9.69165 127.869 10.133H134.139C133.984 9.64074 133.708 9.20792 133.31 8.83451C132.654 8.22348 131.877 7.91796 130.979 7.91796Z" fill="#332455"/>
</svg>
