<svg
                  width="57"
                  height="57"
                  viewBox="0 0 57 57"
                  fill="none"
                  xmlns="http://www.w3.org/2000/svg"
                  >
                  <circle
                    r="22"
                    transform="matrix(-1 0 0 1 28.5 28.5)"
                    stroke="url(#paint0_linear_326_1747)"
                    />
                  <path
                    d="M25.3364 37.9155L34.4049 28.6125C34.5642 28.4491 34.6533 28.2299 34.6533 28.0017C34.6533 27.7736 34.5642 27.5544 34.4049 27.391L25.3364 18.0845C25.2622 18.0083 25.1735 17.9477 25.0755 17.9064C24.9775 17.865 24.8723 17.8437 24.7659 17.8437C24.6596 17.8437 24.5543 17.865 24.4563 17.9064C24.3583 17.9477 24.2696 18.0083 24.1954 18.0845C24.0428 18.2408 23.9573 18.4506 23.9573 18.669C23.9573 18.8875 24.0428 19.0972 24.1954 19.2535L32.7232 28.0017L24.1954 36.7482C24.0433 36.9044 23.9582 37.1138 23.9582 37.3319C23.9582 37.5499 24.0433 37.7593 24.1954 37.9155C24.2696 37.9917 24.3583 38.0523 24.4563 38.0936C24.5543 38.135 24.6596 38.1563 24.7659 38.1563C24.8723 38.1563 24.9775 38.135 25.0755 38.0936C25.1735 38.0523 25.2622 37.9917 25.3364 37.9155Z"
                    fill="#332455"
                    />
                  <defs>
                    <linearGradient
                      id="paint0_linear_326_1747"
                      x1="46.05"
                      y1="22.5"
                      x2="0.749999"
                      y2="22.5"
                      gradientUnits="userSpaceOnUse"
                      >
                      <stop stop-color="#A79CFF" />
                      <stop offset="1" stop-color="#CF16C4" />
                    </linearGradient>
                  </defs>
                </svg>