<svg
                  width="57"
                  height="57"
                  viewBox="0 0 57 57"
                  fill="none"
                  xmlns="http://www.w3.org/2000/svg"
                  >
                  <circle cx="28.5" cy="28.5" r="22" stroke="url(#paint0_linear_326_1743)" />
                  <path
                    d="M31.6636 37.9155L22.5951 28.6125C22.4358 28.4491 22.3467 28.2299 22.3467 28.0017C22.3467 27.7736 22.4358 27.5544 22.5951 27.391L31.6636 18.0845C31.7378 18.0083 31.8265 17.9477 31.9245 17.9064C32.0225 17.865 32.1277 17.8437 32.2341 17.8437C32.3404 17.8437 32.4457 17.865 32.5437 17.9064C32.6417 17.9477 32.7304 18.0083 32.8046 18.0845C32.9572 18.2408 33.0427 18.4506 33.0427 18.669C33.0427 18.8875 32.9572 19.0972 32.8046 19.2535L24.2768 28.0017L32.8046 36.7482C32.9567 36.9044 33.0418 37.1138 33.0418 37.3319C33.0418 37.5499 32.9567 37.7593 32.8046 37.9155C32.7304 37.9917 32.6417 38.0523 32.5437 38.0936C32.4457 38.135 32.3404 38.1563 32.2341 38.1563C32.1277 38.1563 32.0225 38.135 31.9245 38.0936C31.8265 38.0523 31.7378 37.9917 31.6636 37.9155Z"
                    fill="#332455"
                    />
                  <defs>
                    <linearGradient
                      id="paint0_linear_326_1743"
                      x1="52.05"
                      y1="28.5"
                      x2="6.75"
                      y2="28.5"
                      gradientUnits="userSpaceOnUse"
                      >
                      <stop stop-color="#A79CFF" />
                      <stop offset="1" stop-color="#CF16C4" />
                    </linearGradient>
                  </defs>
                </svg>