<svg width="80" height="80" viewBox="0 0 80 80" fill="none" xmlns="http://www.w3.org/2000/svg">
<path d="M43.8453 8.16391L34.5511 24.197H67.6804C63.3331 16.1055 54.3387 9.36264 43.8453 8.16391ZM14.4637 20.7506L23.7579 36.7836L40.2475 8.01407C30.9534 7.71439 20.6098 12.2096 14.4637 20.7506ZM10.5661 52.3671H29.0046L12.365 23.7474C7.568 31.689 6.36875 42.7773 10.5661 52.3671ZM36.0502 71.6967L45.3444 55.6637H12.0652C16.5624 63.9049 25.5567 70.498 36.0502 71.6967ZM65.5817 59.2599L56.2875 43.2268L39.6479 71.9964C48.9421 72.1462 59.2856 67.651 65.5817 59.2599ZM69.4792 27.4935H51.0408L67.6804 56.263C72.3275 48.1716 73.6766 37.0833 69.4792 27.4935Z" fill="#AC8EF9"/>
</svg>
