<svg width="80" height="80" viewBox="0 0 80 80" fill="none" xmlns="http://www.w3.org/2000/svg">
<path d="M39.9998 23.2C48.9667 23.2 56.5837 27.2091 61.3082 30.6455C66.9968 34.6545 69.8894 38.5682 70.6607 40C69.8894 41.5273 66.9968 45.3454 61.3082 49.3545C56.4873 52.7909 48.9667 56.8 39.9998 56.8C31.0329 56.8 23.4159 52.7909 18.6914 49.3545C13.0027 45.3454 10.1102 41.4318 9.33882 40C10.1102 38.4727 13.0027 34.6545 18.6914 30.6455C23.5123 27.2091 31.1293 23.2 39.9998 23.2ZM39.9998 19C20.6197 19 5 35.8 5 40C5 44.2 20.7162 61 39.9998 61C59.3798 61 74.9996 44.2 74.9996 40C75.096 35.8 59.3798 19 39.9998 19ZM39.9998 27.4C32.9613 27.4 27.2726 33.0318 27.2726 40C27.2726 46.9682 32.9613 52.6 39.9998 52.6C47.0383 52.6 52.727 46.9682 52.727 40C52.8234 33.0318 47.0383 27.4 39.9998 27.4ZM36.6251 40C33.6362 40 31.2257 37.6136 31.2257 34.6545C31.2257 31.6954 33.6362 29.3091 36.6251 29.3091C39.6141 29.3091 42.0246 31.6954 42.0246 34.6545C42.0246 37.6136 39.6141 40 36.6251 40Z" fill="#AC8EF9"/>
</svg>
