<svg width="80" height="80" viewBox="0 0 80 80" fill="none" xmlns="http://www.w3.org/2000/svg">
<path d="M61.4456 12H19.5544C17.6503 12 16 13.5448 16 15.6046V64.3954C16 66.3265 17.5233 68 19.5544 68H61.4456C63.3497 68 65 66.4552 65 64.3954V15.6046C65 13.5448 63.4767 12 61.4456 12ZM25.6477 64.2667C25.6477 64.7816 25.2668 65.1678 24.7591 65.1678H19.5544C19.0466 65.1678 18.6658 64.7816 18.6658 64.2667V59.8897C18.6658 59.3747 19.0466 58.9885 19.5544 58.9885H24.7591C25.2668 58.9885 25.6477 59.3747 25.6477 59.8897V64.2667ZM25.6477 55.3839C25.6477 55.8989 25.2668 56.2851 24.7591 56.2851H19.5544C19.0466 56.2851 18.6658 55.8989 18.6658 55.3839V51.0069C18.6658 50.4919 19.0466 50.1058 19.5544 50.1058H24.7591C25.2668 50.1058 25.6477 50.4919 25.6477 51.0069V55.3839ZM25.6477 46.5011C25.6477 47.0161 25.2668 47.4023 24.7591 47.4023H19.5544C19.0466 47.4023 18.6658 47.0161 18.6658 46.5011V42.1241C18.6658 41.6092 19.0466 41.223 19.5544 41.223H24.7591C25.2668 41.223 25.6477 41.6092 25.6477 42.1241V46.5011ZM25.6477 37.6184C25.6477 38.1333 25.2668 38.5195 24.7591 38.5195H19.5544C19.0466 38.5195 18.6658 38.1333 18.6658 37.6184V33.2414C18.6658 32.7264 19.0466 32.3402 19.5544 32.3402H24.7591C25.2668 32.3402 25.6477 32.7264 25.6477 33.2414V37.6184ZM25.6477 28.8644C25.6477 29.3793 25.2668 29.7655 24.7591 29.7655H19.5544C19.0466 29.7655 18.6658 29.3793 18.6658 28.8644V24.4874C18.6658 23.9724 19.0466 23.5862 19.5544 23.5862H24.7591C25.2668 23.5862 25.6477 23.9724 25.6477 24.4874V28.8644ZM25.6477 19.9816C25.6477 20.4966 25.2668 20.8828 24.7591 20.8828H19.5544C19.0466 20.8828 18.6658 20.4966 18.6658 19.9816V15.6046C18.6658 15.0896 19.0466 14.7035 19.5544 14.7035H24.7591C25.2668 14.7035 25.6477 15.0896 25.6477 15.6046V19.9816ZM52.8135 64.2667C52.8135 64.7816 52.4326 65.1678 51.9249 65.1678H29.2021C28.6943 65.1678 28.3135 64.7816 28.3135 64.2667V42.1241C28.3135 41.6092 28.6943 41.223 29.2021 41.223H51.9249C52.4326 41.223 52.8135 41.6092 52.8135 42.1241V64.2667ZM51.9249 38.5195H29.2021C28.6943 38.5195 28.3135 38.1333 28.3135 37.6184V15.4759C28.3135 14.9609 28.6943 14.5747 29.2021 14.5747H51.9249C52.4326 14.5747 52.8135 14.9609 52.8135 15.4759V37.6184C52.8135 38.1333 52.3057 38.5195 51.9249 38.5195ZM62.3342 64.2667C62.3342 64.7816 61.9534 65.1678 61.4456 65.1678H56.2409C55.7332 65.1678 55.3523 64.7816 55.3523 64.2667V59.8897C55.3523 59.3747 55.7332 58.9885 56.2409 58.9885H61.4456C61.9534 58.9885 62.3342 59.3747 62.3342 59.8897V64.2667ZM62.3342 55.3839C62.3342 55.8989 61.9534 56.2851 61.4456 56.2851H56.2409C55.7332 56.2851 55.3523 55.8989 55.3523 55.3839V51.0069C55.3523 50.4919 55.7332 50.1058 56.2409 50.1058H61.4456C61.9534 50.1058 62.3342 50.4919 62.3342 51.0069V55.3839ZM62.3342 46.5011C62.3342 47.0161 61.9534 47.4023 61.4456 47.4023H56.2409C55.7332 47.4023 55.3523 47.0161 55.3523 46.5011V42.1241C55.3523 41.6092 55.7332 41.223 56.2409 41.223H61.4456C61.9534 41.223 62.3342 41.6092 62.3342 42.1241V46.5011ZM62.3342 37.6184C62.3342 38.1333 61.9534 38.5195 61.4456 38.5195H56.2409C55.7332 38.5195 55.3523 38.1333 55.3523 37.6184V33.2414C55.3523 32.7264 55.7332 32.3402 56.2409 32.3402H61.4456C61.9534 32.3402 62.3342 32.7264 62.3342 33.2414V37.6184ZM62.3342 28.8644C62.3342 29.3793 61.9534 29.7655 61.4456 29.7655H56.2409C55.7332 29.7655 55.3523 29.3793 55.3523 28.8644V24.4874C55.3523 23.9724 55.7332 23.5862 56.2409 23.5862H61.4456C61.9534 23.5862 62.3342 23.9724 62.3342 24.4874V28.8644ZM62.3342 19.9816C62.3342 20.4966 61.9534 20.8828 61.4456 20.8828H56.2409C55.7332 20.8828 55.3523 20.4966 55.3523 19.9816V15.6046C55.3523 15.0896 55.7332 14.7035 56.2409 14.7035H61.4456C61.9534 14.7035 62.3342 15.0896 62.3342 15.6046V19.9816Z" fill="#AC8EF9"/>
</svg>
