<svg width="46" height="46" viewBox="0 0 46 46" fill="none" xmlns="http://www.w3.org/2000/svg">
<path fill-rule="evenodd" clip-rule="evenodd" d="M18 13C18 12.4696 18.2107 11.9609 18.5858 11.5858C18.9609 11.2107 19.4696 11 20 11H44C44.5304 11 45.0391 11.2107 45.4142 11.5858C45.7893 11.9609 46 12.4696 46 13C46 13.5304 45.7893 14.0391 45.4142 14.4142C45.0391 14.7893 44.5304 15 44 15H20C19.4696 15 18.9609 14.7893 18.5858 14.4142C18.2107 14.0391 18 13.5304 18 13ZM18 23C18 22.4696 18.2107 21.9609 18.5858 21.5858C18.9609 21.2107 19.4696 21 20 21H44C44.5304 21 45.0391 21.2107 45.4142 21.5858C45.7893 21.9609 46 22.4696 46 23C46 23.5304 45.7893 24.0391 45.4142 24.4142C45.0391 24.7893 44.5304 25 44 25H20C19.4696 25 18.9609 24.7893 18.5858 24.4142C18.2107 24.0391 18 23.5304 18 23ZM30 33C30 32.4696 30.2107 31.9609 30.5858 31.5858C30.9609 31.2107 31.4696 31 32 31H44C44.5304 31 45.0391 31.2107 45.4142 31.5858C45.7893 31.9609 46 32.4696 46 33C46 33.5304 45.7893 34.0391 45.4142 34.4142C45.0391 34.7893 44.5304 35 44 35H32C31.4696 35 30.9609 34.7893 30.5858 34.4142C30.2107 34.0391 30 33.5304 30 33Z" fill="#AC8EF9"/>
</svg>
