<svg width="18" height="18" viewBox="0 0 18 18" fill="none" xmlns="http://www.w3.org/2000/svg">
<path d="M11.3913 5.04974C11.3913 5.01413 11.3728 4.97853 11.3728 4.94293C11.3728 4.92513 11.3544 4.88952 11.3544 4.87172L11.3359 4.78271C11.3359 4.76491 11.3175 4.72931 11.3175 4.71151C11.299 4.6759 11.299 4.6403 11.2806 4.6225L11.2437 4.55129C11.2437 4.53349 11.2252 4.51569 11.2252 4.51569C11.2068 4.48008 11.1883 4.42668 11.1699 4.39108L11.1514 4.33767C11.1514 4.33767 11.1514 4.31987 11.133 4.31987C11.0961 4.26646 11.0776 4.21306 11.0408 4.17746C11.0408 4.17746 11.0223 4.15965 11.0223 4.14185C10.9854 4.07065 10.9301 4.01724 10.8932 3.98164L10.8747 3.96384C10.8378 3.91043 10.7825 3.85703 10.7271 3.80362L10.7087 3.78582C10.266 3.35858 9.65717 3.10936 9.0115 3.10936H8.9746C7.64637 3.10936 6.55795 4.15966 6.55795 5.44137C6.55795 6.72309 7.64637 7.77339 8.9746 7.77339H9.0115C9.65717 7.77339 10.2475 7.52417 10.7087 7.07913C10.764 7.02572 10.8194 6.97232 10.8563 6.91891C10.8563 6.90111 10.8747 6.90111 10.8747 6.90111C10.9116 6.84771 10.9485 6.7943 10.9854 6.7409C11.0039 6.72309 11.0039 6.70529 11.0039 6.70529C11.0408 6.65189 11.0776 6.59848 11.0961 6.54508C11.0961 6.54508 11.0961 6.52728 11.1145 6.52728C11.1145 6.50947 11.133 6.50947 11.133 6.49167L11.1514 6.47387C11.1699 6.43827 11.1883 6.40266 11.2068 6.34926C11.2068 6.33146 11.2252 6.31366 11.2252 6.31366L11.2621 6.24245C11.2806 6.20685 11.2806 6.17124 11.299 6.15344C11.299 6.13564 11.3175 6.11784 11.3175 6.08223L11.3359 5.99323C11.3359 5.97542 11.3544 5.93982 11.3544 5.92202C11.3544 5.88642 11.3728 5.85081 11.3728 5.81521L11.3913 5.7262C11.3913 5.7084 11.3913 5.6906 11.3913 5.6728C11.3913 5.60159 11.4097 5.51258 11.4097 5.44137C11.4097 5.37017 11.4097 5.28116 11.3913 5.20995C11.3913 5.19215 11.3913 5.17435 11.3913 5.15655V5.04974Z" fill="#AC8EF9"/>
<path d="M13.9764 9.08621C13.9982 9.04433 14.0417 9.00246 14.0853 8.93965C14.0853 8.93965 14.0853 8.91872 14.1071 8.91872C14.1724 8.77217 14.3031 8.58374 14.3031 8.56281C14.7604 7.6835 15 6.74138 15 5.75739C15 5.65271 15 5.54803 15 5.44335C15 5.40148 15 5.35961 15 5.31773V5.23399C15 5.21305 15 5.17118 15 5.15025C15 5.10837 15 5.0665 14.9782 5.04557V4.96182C14.9782 4.91995 14.9782 4.87808 14.9564 4.85714C14.9564 4.83621 14.9564 4.79433 14.9347 4.7734L14.9129 4.68965C14.9129 4.64778 14.8911 4.60591 14.8911 4.56404C14.8911 4.52217 14.8693 4.50123 14.8693 4.45936L14.8475 4.37562C14.8475 4.33374 14.8258 4.31281 14.8258 4.27094C14.804 4.22906 14.804 4.18719 14.7822 4.14532L14.7604 4.06158C14.7604 4.04064 14.7387 4.0197 14.7387 3.99877C14.7169 3.9569 14.7169 3.89409 14.6951 3.85222L14.6733 3.78941C14.6733 3.76847 14.6515 3.74754 14.6515 3.7266C14.6298 3.68473 14.608 3.62192 14.608 3.58005L14.5862 3.51724C14.5862 3.4963 14.5644 3.47537 14.5644 3.45443C14.5427 3.41256 14.5209 3.34975 14.4991 3.30788L14.4773 3.24507C14.4773 3.22414 14.4555 3.2032 14.4555 3.2032C14.4338 3.14039 14.3902 3.07759 14.3466 2.99384L14.3249 2.95197C14.2813 2.88916 14.2595 2.82635 14.216 2.74261L14.1942 2.70074C14.1506 2.63793 14.1071 2.55419 14.0635 2.49138L14.0417 2.47044C13.9982 2.40764 13.9546 2.34483 13.8893 2.26108L13.8675 2.24015C13.824 2.17734 13.7586 2.0936 13.7151 2.03079C13.7151 2.03079 13.7151 2.00985 13.6933 2.00985C13.6279 1.94704 13.5844 1.88424 13.5191 1.80049C13.4537 1.73768 13.3884 1.67488 13.323 1.61207C12.2341 0.565271 10.7314 0 8.98911 0C5.46098 0 3 2.36576 3 5.75739C3 6.80419 3.28312 7.85098 3.80581 8.75123L3.89292 8.91872V8.93965L4.04537 9.16995C4.06715 9.19089 4.08893 9.21182 4.08893 9.23276L8.81489 16.8744C8.85844 16.9581 8.94556 17 9.03267 17C9.11979 17 9.2069 16.9581 9.25046 16.8744L10.1216 15.4298L13.8675 9.23276C13.9111 9.16995 13.9546 9.12808 13.9764 9.08621ZM12.3648 5.8202C12.3648 5.84113 12.3648 5.883 12.343 5.90394L12.3212 5.98768C12.3212 6.02956 12.2995 6.09236 12.2995 6.13424C12.2995 6.17611 12.2777 6.21798 12.2777 6.25985L12.2559 6.3436C12.2559 6.38547 12.2341 6.42734 12.2341 6.44828C12.2123 6.49015 12.1906 6.55296 12.1906 6.59483L12.1688 6.67857C12.1688 6.69951 12.147 6.74138 12.147 6.76231C12.1252 6.82512 12.0817 6.88793 12.0599 6.9298L12.0381 6.97167C12.0381 6.99261 12.0163 7.01355 12.0163 7.03448C11.9728 7.09729 11.9292 7.18103 11.8857 7.24384C11.8639 7.26478 11.8639 7.28571 11.8421 7.30665C11.7985 7.39039 11.7332 7.4532 11.6679 7.51601C11.6679 7.53694 11.6461 7.53695 11.6461 7.53695C11.5808 7.62069 11.5154 7.6835 11.4283 7.76724C10.7967 8.39532 9.94737 8.7303 9.05445 8.75123C9.03267 8.75123 9.03266 8.75123 9.01089 8.75123C7.13793 8.75123 5.61343 7.28571 5.61343 5.48522C5.61343 3.68473 7.13793 2.21921 9.01089 2.21921H9.05445C9.94737 2.21921 10.7967 2.57512 11.4283 3.18227L11.4501 3.2032C11.5372 3.28695 11.6025 3.34975 11.6461 3.41256L11.6679 3.4335C11.7332 3.51724 11.7768 3.58005 11.8421 3.66379C11.8421 3.68473 11.8639 3.68473 11.8639 3.70566C11.9292 3.78941 11.9728 3.85222 11.9946 3.93596C12.0163 3.9569 12.0163 3.97783 12.0163 3.99877L12.0381 4.0197C12.0817 4.10345 12.1035 4.14532 12.147 4.22906C12.1688 4.25 12.1688 4.29187 12.1688 4.31281L12.1906 4.39655C12.2123 4.43842 12.2341 4.50123 12.2341 4.5431C12.2559 4.58497 12.2559 4.60591 12.2559 4.64778L12.2777 4.73153C12.2995 4.7734 12.2995 4.81527 12.2995 4.85714C12.2995 4.89901 12.3212 4.96182 12.3212 5.00369L12.343 5.08744C12.343 5.10837 12.343 5.15025 12.3648 5.17118C12.3866 5.27586 12.3866 5.40148 12.3866 5.50616C12.3648 5.61084 12.3648 5.71552 12.3648 5.8202Z" fill="#AC8EF9"/>
</svg>
