<svg width="18" height="18" viewBox="0 0 18 18" fill="none" xmlns="http://www.w3.org/2000/svg">
<path d="M11.7557 12.395L13.0157 11.135C13.1854 10.9674 13.4001 10.8527 13.6338 10.8048C13.8674 10.7568 14.11 10.7778 14.332 10.865L15.8676 11.4781C16.0919 11.5692 16.2843 11.7246 16.4204 11.9248C16.5565 12.125 16.6304 12.3611 16.6326 12.6031V15.4156C16.6313 15.5803 16.5967 15.7431 16.5308 15.894C16.465 16.045 16.3692 16.181 16.2494 16.294C16.1296 16.407 15.9881 16.4946 15.8336 16.5515C15.679 16.6084 15.5146 16.6334 15.3501 16.625C4.58946 15.9556 2.41821 6.84315 2.00758 3.35565C1.98852 3.18439 2.00594 3.01103 2.05868 2.84698C2.11143 2.68294 2.19832 2.53192 2.31362 2.40386C2.42892 2.27581 2.57004 2.17361 2.72767 2.10401C2.88531 2.0344 3.05589 1.99897 3.22821 2.00002H5.94508C6.18753 2.00074 6.42421 2.07397 6.62469 2.2103C6.82518 2.34663 6.98029 2.53982 7.07008 2.76502L7.68321 4.30065C7.77335 4.52175 7.79635 4.76451 7.74933 4.9986C7.70231 5.2327 7.58736 5.44775 7.41883 5.6169L6.15883 6.8769C6.15883 6.8769 6.88446 11.7875 11.7557 12.395Z" fill="#AC8EF9"/>
</svg>
