<svg width="18" height="18" viewBox="0 0 18 18" fill="none" xmlns="http://www.w3.org/2000/svg">
<path d="M16 6.10909V12.8818L11.8381 9.49091L16 6.10909Z" fill="#AC8EF9"/>
<path d="M3.10554 4H14.8945C15.4426 4 15.8978 4.39091 15.9814 4.9L10.4818 9.37272L9.56206 10.1182C9.2462 10.3727 8.74453 10.3727 8.42868 10.1182L7.46253 9.33636L2.00932 4.9C2.10222 4.39091 2.55743 4 3.10554 4Z" fill="#AC8EF9"/>
<path d="M2 12.8818V6.10909L6.1619 9.49091L2 12.8818Z" fill="#AC8EF9"/>
<path d="M7.6855 10.7364L8.42869 11.3455C8.74455 11.6 9.24622 11.6 9.56208 11.3455L11.0763 10.1091L15.5727 13.7636C15.3869 13.9091 15.1453 14 14.8852 14H3.09627C2.83615 14 2.59461 13.9091 2.40881 13.7636L6.90515 10.1091L7.6855 10.7364Z" fill="#AC8EF9"/>
</svg>
