<svg width="28" height="28" viewBox="0 0 28 28" fill="none" xmlns="http://www.w3.org/2000/svg">
<path d="M16.6636 23.9155L7.59509 14.6125C7.43582 14.4491 7.34668 14.2299 7.34668 14.0017C7.34668 13.7736 7.43582 13.5544 7.59509 13.391L16.6636 4.0845C16.7378 4.0083 16.8265 3.94774 16.9245 3.90638C17.0225 3.86503 17.1277 3.84372 17.2341 3.84372C17.3404 3.84372 17.4457 3.86503 17.5437 3.90638C17.6417 3.94774 17.7304 4.0083 17.8046 4.0845C17.9572 4.24077 18.0427 4.45056 18.0427 4.669C18.0427 4.88745 17.9572 5.09723 17.8046 5.2535L9.27684 14.0017L17.8046 22.7482C17.9567 22.9044 18.0418 23.1138 18.0418 23.3319C18.0418 23.5499 17.9567 23.7593 17.8046 23.9155C17.7304 23.9917 17.6417 24.0523 17.5437 24.0936C17.4457 24.135 17.3404 24.1563 17.2341 24.1563C17.1277 24.1563 17.0225 24.135 16.9245 24.0936C16.8265 24.0523 16.7378 23.9917 16.6636 23.9155Z" fill="white"/>
</svg>
