<svg width="28" height="28" viewBox="0 0 28 28" fill="none" xmlns="http://www.w3.org/2000/svg">
<path d="M11.3364 23.9155L20.4049 14.6125C20.5642 14.4491 20.6533 14.2299 20.6533 14.0017C20.6533 13.7736 20.5642 13.5544 20.4049 13.391L11.3364 4.0845C11.2622 4.0083 11.1735 3.94774 11.0755 3.90638C10.9775 3.86503 10.8723 3.84372 10.7659 3.84372C10.6596 3.84372 10.5543 3.86503 10.4563 3.90638C10.3583 3.94774 10.2696 4.0083 10.1954 4.0845C10.0428 4.24077 9.95731 4.45056 9.95731 4.669C9.95731 4.88745 10.0428 5.09723 10.1954 5.2535L18.7232 14.0017L10.1954 22.7482C10.0433 22.9044 9.95817 23.1138 9.95817 23.3319C9.95817 23.5499 10.0433 23.7593 10.1954 23.9155C10.2696 23.9917 10.3583 24.0523 10.4563 24.0936C10.5543 24.135 10.6596 24.1563 10.7659 24.1563C10.8723 24.1563 10.9775 24.135 11.0755 24.0936C11.1735 24.0523 11.2622 23.9917 11.3364 23.9155Z" fill="white"/>
</svg>
