<svg width="20" height="20" viewBox="0 0 20 20" fill="none" xmlns="http://www.w3.org/2000/svg">
<path d="M17 6.95C17 6.16863 16.8319 5.39492 16.5052 4.67303C16.1786 3.95115 15.6998 3.29522 15.0962 2.74271C14.4926 2.19021 13.7761 1.75193 12.9874 1.45292C12.1988 1.1539 11.3536 1 10.5 1C9.64641 1 8.80117 1.1539 8.01256 1.45292C7.22394 1.75193 6.50739 2.19021 5.90381 2.74271C5.30022 3.29522 4.82144 3.95115 4.49478 4.67303C4.16813 5.39492 4 6.16863 4 6.95C4 8.12895 4.37979 9.22545 5.02607 10.1502H5.01864L10.5 18L15.9814 10.1502H15.9749C16.6442 9.19534 17 8.08459 17 6.95ZM10.5 9.5C9.76118 9.5 9.05262 9.23134 8.5302 8.75312C8.00778 8.2749 7.71429 7.6263 7.71429 6.95C7.71429 6.2737 8.00778 5.62509 8.5302 5.14688C9.05262 4.66866 9.76118 4.4 10.5 4.4C11.2388 4.4 11.9474 4.66866 12.4698 5.14688C12.9922 5.62509 13.2857 6.2737 13.2857 6.95C13.2857 7.6263 12.9922 8.2749 12.4698 8.75312C11.9474 9.23134 11.2388 9.5 10.5 9.5Z" fill="url(#paint0_linear_20_309)"/>
<defs>
<linearGradient id="paint0_linear_20_309" x1="17.3033" y1="9.5" x2="4.21667" y2="9.5" gradientUnits="userSpaceOnUse">
<stop stop-color="#A79CFF"/>
<stop offset="1" stop-color="#CF16C4"/>
</linearGradient>
</defs>
</svg>
