<svg width="20" height="20" viewBox="0 0 20 20" fill="none" xmlns="http://www.w3.org/2000/svg">
<path d="M12.7063 13.425L14.1063 12.025C14.2948 11.8388 14.5334 11.7113 14.793 11.6581C15.0526 11.6048 15.3221 11.6281 15.5688 11.725L17.275 12.4063C17.5243 12.5074 17.738 12.6801 17.8893 12.9026C18.0405 13.125 18.1226 13.3873 18.125 13.6563V16.7813C18.1236 16.9643 18.0851 17.1451 18.0119 17.3128C17.9388 17.4805 17.8324 17.6317 17.6993 17.7573C17.5662 17.8828 17.409 17.9801 17.2373 18.0433C17.0655 18.1065 16.8828 18.1343 16.7 18.125C4.74377 17.3813 2.33127 7.25628 1.87502 3.38128C1.85384 3.19099 1.87319 2.99837 1.9318 2.81609C1.99041 2.63382 2.08695 2.46602 2.21506 2.32374C2.34318 2.18145 2.49997 2.0679 2.67512 1.99057C2.85027 1.91323 3.03981 1.87385 3.23127 1.87503H6.25002C6.5194 1.87582 6.78239 1.95719 7.00514 2.10867C7.2279 2.26015 7.40025 2.4748 7.50002 2.72503L8.18127 4.43128C8.28143 4.67694 8.30698 4.94668 8.25474 5.20678C8.2025 5.46689 8.07477 5.70584 7.88752 5.89378L6.48752 7.29378C6.48752 7.29378 7.29377 12.75 12.7063 13.425Z" fill="url(#paint0_linear_20_313)"/>
<defs>
<linearGradient id="paint0_linear_20_313" x1="18.5044" y1="10.0009" x2="2.13767" y2="10.0009" gradientUnits="userSpaceOnUse">
<stop stop-color="#A79CFF"/>
<stop offset="1" stop-color="#CF16C4"/>
</linearGradient>
</defs>
</svg>
