<svg width="46" height="47" viewBox="0 0 46 47" fill="none" xmlns="http://www.w3.org/2000/svg">
<path fill-rule="evenodd" clip-rule="evenodd" d="M27.3419 1.24165C27.3419 0.912346 27.2144 0.596527 26.9873 0.363672C26.7602 0.130817 26.4522 0 26.131 0L18.8654 0C18.5442 0 18.2362 0.130817 18.0091 0.363672C17.782 0.596527 17.6545 0.912346 17.6545 1.24165C17.6545 1.57096 17.782 1.88678 18.0091 2.11963C18.2362 2.35249 18.5442 2.48331 18.8654 2.48331H21.2873V5.26461C18.7034 5.46751 16.2111 6.33528 14.041 7.78764C13.9929 7.7188 13.9394 7.65403 13.8812 7.59395L11.4593 5.11064C11.3187 4.9665 11.1519 4.85216 10.9682 4.77415C10.7845 4.69614 10.5877 4.65599 10.3888 4.65599C10.19 4.65599 9.99319 4.69614 9.80952 4.77415C9.62585 4.85216 9.45896 4.9665 9.31838 5.11064C9.1778 5.25478 9.06629 5.4259 8.99021 5.61423C8.91414 5.80256 8.87498 6.00442 8.87498 6.20826C8.87498 6.41211 8.91414 6.61396 8.99021 6.80229C9.06629 6.99062 9.1778 7.16174 9.31838 7.30588L11.6797 9.72711C9.14322 12.2628 7.53037 15.6129 7.1097 19.2195C6.68903 22.8262 7.48593 26.4718 9.36771 29.5493C11.2495 32.6268 14.1026 34.9505 17.452 36.1335C20.8013 37.3165 24.4448 37.2874 27.7758 36.051C31.1068 34.8147 33.9242 32.4456 35.759 29.3384C37.5938 26.2312 38.3352 22.5734 37.8597 18.9739C37.3843 15.3744 35.7208 12.0505 33.146 9.5556C30.5713 7.06074 27.2408 5.54548 23.7091 5.26212V2.48331H26.131C26.4522 2.48331 26.7602 2.35249 26.9873 2.11963C27.2144 1.88678 27.3419 1.57096 27.3419 1.24165V1.24165ZM35.5763 21.1081C35.5763 17.5516 34.1984 14.1407 31.7458 11.6259C29.2932 9.11107 25.9667 7.69825 22.4982 7.69825C19.0297 7.69825 15.7032 9.11107 13.2506 11.6259C10.798 14.1407 9.4201 17.5516 9.4201 21.1081C9.4201 24.6646 10.798 28.0755 13.2506 30.5903C15.7032 33.1051 19.0297 34.5179 22.4982 34.5179C25.9667 34.5179 29.2932 33.1051 31.7458 30.5903C34.1984 28.0755 35.5763 24.6646 35.5763 21.1081V21.1081ZM22.4982 21.1081V10.1816C24.2507 10.1813 25.9762 10.6243 27.5219 11.4712C29.0676 12.3182 30.3857 13.5429 31.3594 15.037C32.3332 16.5311 32.9325 18.2483 33.1044 20.0366C33.2762 21.8249 33.0153 23.6291 32.3447 25.2893C31.674 26.9495 30.6144 28.4145 29.2597 29.5545C27.905 30.6945 26.2969 31.4742 24.5781 31.8248C22.8592 32.1753 21.0826 32.0857 19.4056 31.564C17.7285 31.0422 16.2029 30.1044 14.9638 28.8337L22.4982 21.1081Z" fill="#AC8EF9"/>
</svg>
