<svg width="46" height="46" viewBox="0 0 46 46" fill="none" xmlns="http://www.w3.org/2000/svg">
<path d="M11 0V27.9617L35 28V0.038242L11 0ZM31.9561 15.8743V15.7978V21.4208H14.0049V17.5191V17.5574V2.90709H31.9561V2.94535V15.8743Z" fill="#AC8EF9"/>
<path d="M16.7363 5.58468C15.7607 5.58468 14.9802 6.34971 14.9802 7.30599C14.9802 8.26228 15.7607 9.02731 16.7363 9.02731C17.7119 9.02731 18.4924 8.26228 18.4924 7.30599C18.4924 6.34971 17.7119 5.58468 16.7363 5.58468Z" fill="#AC8EF9"/>
<path d="M21.2246 16.3716L17.8295 13.1967L14.9417 17.1366V20.694H30.9026V15.53L25.6734 9.94533L21.2246 16.3716Z" fill="#AC8EF9"/>
<path d="M31.9561 2.94535L14.0439 2.94535L31.9561 2.98394L31.9561 2.94535Z" fill="#AC8EF9"/>
</svg>
