<svg width="47" height="46" viewBox="0 0 47 46" fill="none" xmlns="http://www.w3.org/2000/svg">
<path d="M14.3947 11.5036C10.4196 11.5036 7.19741 14.7258 7.19741 18.7008C7.19741 22.6759 10.4196 25.8981 14.3947 25.8981C18.3697 25.8981 21.5919 22.6759 21.5919 18.7008C21.5919 14.6956 18.3697 11.5036 14.3947 11.5036ZM14.3947 23.8202C11.564 23.8202 9.24516 21.5014 9.24516 18.6707C9.24516 15.84 11.564 13.5212 14.3947 13.5212C17.2254 13.5212 19.5442 15.84 19.5442 18.6707C19.5442 21.5315 17.2555 23.8202 14.3947 23.8202Z" fill="#AC8EF9"/>
<path d="M26.6511 14.9667L27.6448 12.7985L26.2295 10.3291L23.9408 10.1183C23.6999 9.8473 23.4289 9.57628 23.1578 9.33537L22.9471 6.95635L20.4777 5.54098L18.3697 6.50464C18.0083 6.38418 17.6771 6.29384 17.3157 6.2035L15.9305 4.27621H13.0997L11.7747 6.14326C11.4134 6.20349 11.052 6.32396 10.6906 6.4143L8.52241 5.42054L6.05306 6.8359L5.84225 9.12456C5.57123 9.36548 5.30021 9.63649 5.0593 9.90752L2.68028 10.1183L1.26492 12.5877L2.22857 14.6957C2.10811 15.057 2.01777 15.3883 1.92743 15.7497L0.00012207 17.1349V19.9656L1.8672 21.2906C1.92742 21.652 2.04789 22.0134 2.13823 22.3747L1.14447 24.543L2.55982 27.0123L4.8485 27.2231C5.08941 27.4941 5.36043 27.7652 5.60135 28.0061L5.84225 30.3851L8.31161 31.8004L10.4196 30.8368C10.781 30.9572 11.1122 31.0476 11.4736 31.1379L12.8588 33.0652H15.6895L17.0146 31.1982C17.3759 31.1078 17.7373 31.0175 18.0987 30.9271L20.2669 31.9209L22.7362 30.5055L22.9471 28.2169C23.2181 27.976 23.4891 27.7049 23.73 27.464L26.109 27.2231L27.5244 24.7538L26.5607 22.6458C26.6812 22.2844 26.7715 21.9532 26.8619 21.5918L28.8193 20.2065V17.3758L26.9221 16.0508C26.8619 15.6894 26.7715 15.3281 26.6511 14.9667ZM14.3947 27.8555C9.33549 27.8555 5.20987 23.76 5.20987 18.6707C5.20987 13.6116 9.30538 9.48594 14.3947 9.48594C19.4538 9.48594 23.5794 13.5814 23.5794 18.6707C23.5794 23.76 19.4839 27.8555 14.3947 27.8555Z" fill="#AC8EF9"/>
<path d="M36.4081 4.9086C33.6979 4.9086 31.4995 7.10692 31.4995 9.81719C31.4995 12.5275 33.6979 14.7258 36.4081 14.7258C39.1184 14.7258 41.3167 12.5275 41.3167 9.81719C41.3469 7.10692 39.1485 4.9086 36.4081 4.9086ZM36.4081 13.3405C34.4507 13.3405 32.8848 11.7746 32.8848 9.81719C32.8848 7.85978 34.4507 6.29384 36.4081 6.29384C38.3655 6.29384 39.9315 7.85978 39.9315 9.81719C39.9315 11.7746 38.3655 13.3405 36.4081 13.3405Z" fill="#AC8EF9"/>
<path d="M46.2853 10.8712V8.94388L44.9904 8.04045C44.9301 7.79954 44.8699 7.55862 44.8097 7.31771L45.4722 5.84211L44.5085 4.15574L42.9426 4.00516C42.7619 3.82448 42.6114 3.6438 42.4307 3.46312L42.2801 1.83695L40.5937 0.873296L39.1482 1.53581C38.9073 1.44547 38.6664 1.38524 38.4255 1.32501L37.492 0H35.5647L34.6612 1.2949C34.4203 1.35513 34.1794 1.41535 33.9385 1.47558L32.4629 0.782958L30.7765 1.74661L30.626 3.31255C30.4453 3.49323 30.2646 3.6438 30.0839 3.85459L28.4577 4.00516L27.4941 5.69154L28.1566 7.13703C28.0663 7.37795 28.006 7.61885 27.9458 7.85976L26.6208 8.79331V10.7206L27.9157 11.624C27.9759 11.8649 28.0362 12.1058 28.0964 12.3468L27.4038 13.8223L28.3674 15.5087L29.9333 15.6593C30.114 15.84 30.2646 16.0207 30.4453 16.2014L30.5958 17.8275L32.2822 18.7912L33.7277 18.1287C33.9686 18.219 34.2095 18.2792 34.4504 18.3394L35.384 19.6645H37.3414L38.2448 18.3696C38.4857 18.3093 38.7266 18.2491 38.9676 18.1889L40.4431 18.8815L42.1295 17.9179L42.2801 16.3519C42.4608 16.1712 42.6415 16.0207 42.8222 15.8099L44.4483 15.6593L45.412 13.9729L44.7494 12.5274C44.8398 12.2865 44.9 12.0456 44.9603 11.8047L46.2853 10.8712ZM36.4079 16.111C32.9447 16.111 30.1441 13.3104 30.1441 9.8473C30.1441 6.38418 32.9447 3.58356 36.4079 3.58356C39.871 3.58356 42.6716 6.38418 42.6716 9.8473C42.7017 13.2803 39.9011 16.111 36.4079 16.111Z" fill="#AC8EF9"/>
</svg>
