<svg width="46" height="46" viewBox="0 0 46 46" fill="none" xmlns="http://www.w3.org/2000/svg">
<path d="M27.0831 10.11C27.0831 10.0387 27.0478 9.96745 27.0478 9.89617C27.0478 9.86053 27.0124 9.78925 27.0124 9.75361L26.9771 9.57541C26.9771 9.53977 26.9417 9.46849 26.9417 9.43285C26.9064 9.36157 26.9064 9.29029 26.871 9.25465L26.8003 9.11209C26.8003 9.07645 26.7649 9.0408 26.7649 9.0408C26.7296 8.96952 26.6942 8.8626 26.6589 8.79132L26.6235 8.6844C26.6235 8.6844 26.6235 8.64876 26.5881 8.64876C26.5174 8.54184 26.4821 8.43492 26.4113 8.36364C26.4113 8.36364 26.376 8.328 26.376 8.29236C26.3053 8.1498 26.1992 8.04288 26.1285 7.9716L26.0931 7.93596C26.0224 7.82903 25.9163 7.72211 25.8102 7.61519L25.7749 7.57955C24.9263 6.72418 23.7595 6.22522 22.5219 6.22522H22.4512C19.9054 6.22522 17.8193 8.328 17.8193 10.8941C17.8193 13.4602 19.9054 15.563 22.4512 15.563H22.5219C23.7595 15.563 24.8909 15.064 25.7749 14.173C25.881 14.0661 25.987 13.9592 26.0578 13.8522C26.0578 13.8166 26.0931 13.8166 26.0931 13.8166C26.1638 13.7097 26.2346 13.6028 26.3053 13.4958C26.3406 13.4602 26.3406 13.4246 26.3406 13.4246C26.4113 13.3176 26.4821 13.2107 26.5174 13.1038C26.5174 13.1038 26.5174 13.0682 26.5528 13.0682C26.5528 13.0325 26.5881 13.0325 26.5881 12.9969L26.6235 12.9612C26.6588 12.89 26.6942 12.8187 26.7296 12.7118C26.7296 12.6761 26.7649 12.6405 26.7649 12.6405L26.8356 12.4979C26.871 12.4266 26.871 12.3554 26.9063 12.3197C26.9063 12.2841 26.9417 12.2484 26.9417 12.1772L26.9771 11.999C26.9771 11.9633 27.0124 11.892 27.0124 11.8564C27.0124 11.7851 27.0478 11.7138 27.0478 11.6425L27.0831 11.4643C27.0831 11.4287 27.0831 11.3931 27.0831 11.3574C27.0831 11.2149 27.1185 11.0367 27.1185 10.8941C27.1185 10.7515 27.1185 10.5733 27.0831 10.4308C27.0831 10.3951 27.0831 10.3595 27.0831 10.3239V10.11Z" fill="#AC8EF9"/>
<path d="M32.0381 18.1913C32.0798 18.1075 32.1633 18.0236 32.2468 17.8979C32.2468 17.8979 32.2468 17.856 32.2886 17.856C32.4138 17.5626 32.6642 17.1853 32.6642 17.1434C33.5408 15.383 34 13.4968 34 11.5267C34 11.3172 34 11.1076 34 10.898C34 10.8142 34 10.7303 34 10.6465V10.4789C34 10.4369 34 10.3531 34 10.3112C34 10.2274 34 10.1435 33.9583 10.1016V9.93395C33.9583 9.85012 33.9582 9.76629 33.9165 9.72438C33.9165 9.68246 33.9165 9.59863 33.8748 9.55672L33.833 9.38905C33.833 9.30522 33.7913 9.22139 33.7913 9.13756C33.7913 9.05373 33.7495 9.01181 33.7495 8.92798L33.7078 8.76032C33.7078 8.67649 33.6661 8.63458 33.6661 8.55075C33.6243 8.46691 33.6243 8.38308 33.5826 8.29925L33.5408 8.13159C33.5408 8.08968 33.4991 8.04776 33.4991 8.00584C33.4573 7.92201 33.4574 7.79627 33.4156 7.71244L33.3739 7.58669C33.3739 7.54477 33.3321 7.50286 33.3321 7.46094C33.2904 7.37711 33.2486 7.25137 33.2486 7.16754L33.2069 7.04179C33.2069 6.99987 33.1651 6.95796 33.1651 6.91604C33.1234 6.83221 33.0817 6.70647 33.0399 6.62264L32.9982 6.49689C32.9982 6.45497 32.9564 6.41306 32.9564 6.41306C32.9147 6.28731 32.8312 6.16157 32.7477 5.9939L32.706 5.91007C32.6225 5.78433 32.5808 5.65858 32.4973 5.49092L32.4555 5.40709C32.372 5.28134 32.2886 5.11368 32.2051 4.98794L32.1633 4.94602C32.0799 4.82027 31.9964 4.69453 31.8711 4.52687L31.8294 4.48495C31.7459 4.3592 31.6207 4.19154 31.5372 4.0658C31.5372 4.0658 31.5372 4.02388 31.4955 4.02388C31.3702 3.89813 31.2867 3.77239 31.1615 3.60473C31.0363 3.47898 30.9111 3.35323 30.7858 3.22749C28.6987 1.13172 25.8185 0 22.4791 0C15.7169 0 11 4.73644 11 11.5267C11 13.6225 11.5427 15.7183 12.5445 17.5206L12.7114 17.856V17.8979L13.0036 18.359C13.0454 18.4009 13.0871 18.4428 13.0871 18.4847L22.1452 33.7838C22.2287 33.9515 22.3957 34.0353 22.5626 34.0353C22.7296 34.0353 22.8966 33.9515 22.98 33.7838L24.6497 30.8917L31.8294 18.4847C31.9129 18.359 31.9964 18.2751 32.0381 18.1913ZM28.9492 11.6525C28.9492 11.6944 28.9492 11.7782 28.9074 11.8201L28.8657 11.9878C28.8657 12.0716 28.824 12.1974 28.824 12.2812C28.824 12.365 28.7822 12.4489 28.7822 12.5327L28.7405 12.7004C28.7405 12.7842 28.6987 12.868 28.6987 12.9099C28.657 12.9938 28.6153 13.1195 28.6153 13.2034L28.5735 13.371C28.5735 13.4129 28.5318 13.4968 28.5318 13.5387C28.49 13.6644 28.4065 13.7902 28.3648 13.874L28.3231 13.9578C28.3231 13.9997 28.2813 14.0417 28.2813 14.0836C28.1978 14.2093 28.1143 14.377 28.0308 14.5027C27.9891 14.5446 27.9891 14.5866 27.9474 14.6285C27.8639 14.7961 27.7387 14.9219 27.6134 15.0476C27.6134 15.0895 27.5717 15.0896 27.5717 15.0896C27.4465 15.2572 27.3212 15.383 27.1543 15.5506C25.9437 16.8081 24.3158 17.4787 22.6044 17.5206C22.5626 17.5206 22.5626 17.5206 22.5209 17.5206C18.931 17.5206 16.0091 14.5866 16.0091 10.9818C16.0091 7.37711 18.931 4.44303 22.5209 4.44303H22.6044C24.3158 4.44303 25.9437 5.1556 27.1543 6.37114L27.196 6.41306C27.363 6.58072 27.4882 6.70647 27.5717 6.83221L27.6134 6.87413C27.7387 7.04179 27.8221 7.16754 27.9474 7.3352C27.9474 7.37711 27.9891 7.37711 27.9891 7.41903C28.1143 7.58669 28.1978 7.71244 28.2396 7.8801C28.2813 7.92201 28.2813 7.96393 28.2813 8.00584L28.3231 8.04776C28.4065 8.21542 28.4483 8.29925 28.5318 8.46691C28.5735 8.50883 28.5735 8.59266 28.5735 8.63457L28.6153 8.80224C28.657 8.88607 28.6987 9.01181 28.6987 9.09564C28.7405 9.17948 28.7405 9.22139 28.7405 9.30522L28.7822 9.47288C28.8239 9.55671 28.824 9.64054 28.824 9.72438C28.824 9.80821 28.8657 9.93395 28.8657 10.0178L28.9074 10.1854C28.9074 10.2274 28.9074 10.3112 28.9492 10.3531C28.9909 10.5627 28.9909 10.8142 28.9909 11.0238C28.9492 11.2333 28.9492 11.4429 28.9492 11.6525Z" fill="#AC8EF9"/>
</svg>
