<svg width="46" height="46" viewBox="0 0 46 46" fill="none" xmlns="http://www.w3.org/2000/svg">
<path d="M38.25 15.7993L39.9364 16.9437C39.8091 15.5132 39.5228 14.1144 39.0455 12.8111L37.7728 11.9528C38.0909 13.1607 38.25 14.4641 38.25 15.7993Z" fill="#AC8EF9"/>
<path d="M24.3455 32.9019L26.8591 34.5867C27.941 34.3642 28.9909 34.0145 30.0091 33.5695L27.5591 31.9164C26.5091 32.3615 25.4591 32.7112 24.3455 32.9019Z" fill="#AC8EF9"/>
<path d="M38.2818 10.9673C37.7091 9.79109 36.9773 8.71026 36.15 7.72479C36.5955 8.55131 37.0091 9.40962 37.2954 10.3315L38.2818 10.9673Z" fill="#AC8EF9"/>
<path d="M40 18.247L38.2182 17.039C38.1227 18.5013 37.8682 19.9001 37.4227 21.2034L39.4273 22.5704C39.7773 21.2034 39.9682 19.8047 39.9682 18.3106C40 18.3106 40 18.2788 40 18.247Z" fill="#AC8EF9"/>
<path d="M21.0045 33.2516C20.3682 33.2516 19.7636 33.2198 19.1273 33.1562L21.7363 34.9046C22.2772 34.9682 22.8182 35 23.3591 35C23.9955 35 24.6636 34.9682 25.2682 34.9046L22.7227 33.188C22.1818 33.2198 21.6091 33.2516 21.0045 33.2516Z" fill="#AC8EF9"/>
<path d="M12.7318 31.1217C14.5773 32.6476 16.7409 33.792 19.1273 34.4278L16.4864 32.6476C15.15 32.2661 13.8773 31.7575 12.7318 31.1217Z" fill="#AC8EF9"/>
<path d="M35.6092 25.2089L37.7728 26.6712C38.3137 25.7175 38.7592 24.732 39.141 23.683L37.0728 22.2843C36.6592 23.3015 36.1819 24.287 35.6092 25.2089Z" fill="#AC8EF9"/>
<path d="M32.6818 28.6739L35.0046 30.2316C35.8319 29.4369 36.5637 28.5467 37.2001 27.5931L34.9728 26.099C34.3046 27.0209 33.5409 27.8792 32.6818 28.6739Z" fill="#AC8EF9"/>
<path d="M28.7046 31.4396L31.1227 33.0608C32.2364 32.4886 33.2546 31.7893 34.2091 30.9628L31.8864 29.3733C30.8682 30.1998 29.8182 30.8674 28.7046 31.4396Z" fill="#AC8EF9"/>
<path d="M37.0091 15.99C37.0091 7.18437 29.8182 0 21.0046 0C12.1909 0 5 7.18437 5 15.99C5 24.7956 12.1909 31.98 21.0046 31.98C29.8182 31.98 37.0091 24.7956 37.0091 15.99ZM29.9773 25.1771C31.1864 24.0009 32.1409 22.6022 32.8091 21.0763C33.4773 19.5504 33.8273 17.8656 33.8591 16.2125C33.891 14.5277 33.5728 12.8747 32.9682 11.317C32.3637 9.75931 31.4409 8.32879 30.2637 7.12079C28.8955 5.69028 27.5591 4.80018 27.6546 4.60944C27.7182 4.51408 28.1318 4.64124 28.7046 4.95913C29.3091 5.27702 30.0727 5.84922 30.8046 6.61216C32.0455 7.88374 33 9.40962 33.6682 11.0627C34.3046 12.7157 34.6227 14.4959 34.6227 16.2443C34.5909 18.0245 34.2091 19.7729 33.5091 21.3942C32.8091 23.0154 31.791 24.5095 30.5182 25.7493C29.7864 26.4805 28.9909 27.0209 28.3864 27.307C27.7818 27.6249 27.3682 27.7202 27.3046 27.6249C27.2091 27.4024 28.5773 26.544 29.9773 25.1771ZM15.5318 28.0064C15.5 28.1017 15.0546 28.0063 14.3864 27.7202C13.7182 27.4341 12.8591 26.9255 12.0318 26.1944C10.6318 24.9546 9.45455 23.4605 8.65909 21.7439C7.86364 20.059 7.41819 18.1835 7.35456 16.3397C7.29092 14.4641 7.64091 12.5885 8.34091 10.8719C9.04091 9.12352 10.0909 7.56584 11.4591 6.26248C12.2546 5.49954 13.0818 4.92734 13.7182 4.60944C14.3546 4.29155 14.8 4.16439 14.8318 4.25976C14.9273 4.4505 13.4637 5.3406 11.9682 6.8029C10.6955 8.04268 9.70912 9.53678 9.04094 11.158C8.37275 12.7793 8.05456 14.5595 8.1182 16.3397C8.15002 18.0881 8.59545 19.8683 9.32727 21.4578C10.0909 23.0472 11.1727 24.4777 12.5091 25.6539C14.1 27.0209 15.6273 27.8156 15.5318 28.0064ZM15.7546 10.6812V9.37784H16.6136C17.7273 9.37784 18.7455 9.15531 19.6046 8.74205C20.4955 8.32879 21.1318 7.88374 21.5137 7.4069H22.7864C22.7546 8.07447 22.7227 8.8692 22.6909 9.7593C22.6591 10.6494 22.6591 11.4759 22.6591 12.1753V21.3624C22.6591 21.7121 22.7546 22.0617 22.9137 22.3161C23.0728 22.6022 23.2955 22.8247 23.6137 22.9518C23.8682 23.079 24.3136 23.1744 24.9182 23.2697C25.5227 23.3651 25.9682 23.4287 26.2864 23.4287V24.5413H15.8182V23.4287C16.1364 23.3969 16.6136 23.3651 17.2818 23.3015C17.95 23.238 18.3955 23.1744 18.65 23.079C18.9682 22.9836 19.2228 22.7929 19.3819 22.5704C19.5409 22.3479 19.6364 21.9982 19.6364 21.5213V10.6176H15.7546V10.6812Z" fill="#AC8EF9"/>
</svg>
