<svg width="46" height="46" viewBox="0 0 46 46" fill="none" xmlns="http://www.w3.org/2000/svg">
<path d="M34.4461 2.77894C32.4164 2.77894 30.7732 4.40796 30.7732 6.42028C30.7732 8.4326 32.4164 10.0616 34.4461 10.0616C36.4758 10.0616 38.119 8.4326 38.119 6.42028C38.0706 4.40796 36.4275 2.77894 34.4461 2.77894Z" fill="#AC8EF9"/>
<path d="M34.4944 0C29.8067 0 25.9889 3.7851 25.9889 8.4326C25.9889 9.29503 26.1338 10.1095 26.3755 10.9241L23.8625 12.1219C21.9294 9.19921 18.5948 7.23479 14.8253 7.23479C8.88104 7.23479 4 12.026 4 17.9672C4 23.8604 8.83271 28.6996 14.8253 28.6996C17.5799 28.6996 20.1413 27.6455 22.026 25.9685L23.5725 27.2622C22.5093 29.0349 22.316 31.2389 23.2342 33.2512C24.7323 36.4614 28.5985 37.8987 31.8364 36.4134C35.0744 34.9282 36.5242 31.0952 35.026 27.885C33.5279 24.6749 29.6617 23.2375 26.4238 24.7228C25.9405 24.9624 25.4573 25.2499 25.0706 25.5852L23.5242 24.3395C24.829 22.5668 25.6022 20.4107 25.6022 18.0151C25.6022 16.7694 25.3606 15.5236 24.974 14.4217L27.487 13.2238C29.0335 15.4278 31.5948 16.9131 34.4944 16.9131C39.1822 16.9131 43 13.128 43 8.48051C43 3.73718 39.1822 0 34.4944 0ZM27.052 26.0165C29.5651 24.8666 32.513 25.9685 33.6729 28.46C34.5911 30.4244 34.1078 32.6284 32.6097 34.0658C32.223 32.2451 31.3532 31.5743 31.1115 31.3826L31.0632 31.4306C31.0149 31.4306 31.0149 31.4785 30.9665 31.4785C30.9182 31.5264 30.8699 31.5743 30.8216 31.6222L29.71 33.9699L29.4684 32.6284L29.8067 32.1013C29.7584 32.1013 29.71 32.1013 29.6617 32.1493C29.5651 32.1493 29.4684 32.1972 29.3234 32.1972C29.2751 32.1972 29.1784 32.1972 29.1301 32.1972C28.8885 32.1972 28.6468 32.1492 28.4535 32.1013L28.7918 32.6763L28.5985 34.0658L27.2937 31.5743C27.2453 31.5264 27.197 31.4785 27.1004 31.4306C26.2305 32.1972 25.8439 33.2033 25.6506 34.0178C25.2156 33.5866 24.8773 33.1075 24.6357 32.5805C23.4758 30.089 24.5874 27.1185 27.052 26.0165ZM17.9182 21.0815C17.8699 21.1773 16.4684 22.0876 16.4684 22.0876L17.145 22.998L14.9703 24.6749L12.7955 22.998L13.4721 22.0876C13.4721 22.0876 12.0706 21.1773 12.0223 21.0815C11.8773 20.9377 12.6506 20.219 12.6506 20.219L14.9703 24.6749L17.29 20.219C17.29 20.219 18.0149 20.9377 17.9182 21.0815ZM20.4796 23.9083C20.1896 22.5668 19.7546 21.5606 19.3197 20.8898C19.658 19.4046 19.8996 17.488 19.7063 16.1465C19.658 15.9548 19.658 15.7632 19.6097 15.5715C19.6097 15.4278 19.5613 15.2841 19.5613 15.0924C19.4647 14.5175 19.2714 13.9425 19.0297 13.4634C18.6431 12.5531 18.1599 11.9302 17.4833 11.499C16.7584 10.9719 15.9368 10.6366 14.9703 10.6366C14.487 10.6366 14.0037 10.7324 13.5688 10.8761C12.2156 11.1636 11.5874 11.9781 11.394 12.3135C11.2007 12.601 11.0074 12.9364 10.8624 13.3197C10.7175 13.6072 10.6208 13.9425 10.5725 14.2779C10.3792 15.0445 10.2342 15.859 10.0892 16.7693C9.84759 18.2067 9.60595 19.6441 9.07435 20.8898C9.07435 20.9377 9.07435 20.9857 9.07435 20.9857C9.12268 21.0336 9.12267 21.0336 9.171 21.0336C9.70259 20.9377 10.1375 20.794 10.4758 20.4586C10.2342 21.1294 9.21933 21.6564 9.21933 21.6564C9.171 21.6564 9.171 21.7043 9.171 21.7523C9.171 21.8002 9.171 21.8481 9.21933 21.8481C9.21933 21.8481 9.41263 21.9918 9.7026 22.1355C9.41263 22.7584 9.21933 23.3813 9.07435 23.9562C7.47955 22.4709 6.46469 20.3149 6.46469 17.9672C6.46469 13.4155 10.1859 9.77415 14.7286 9.77415C19.3197 9.77415 22.9926 13.4634 22.9926 17.9672C23.0892 20.267 22.0744 22.3751 20.4796 23.9083ZM39.0372 12.9843C38.5539 10.397 37.3941 9.48668 37.1041 9.24712C37.0558 9.29503 37.0558 9.29501 37.0074 9.34292C36.9591 9.39084 36.9591 9.39084 36.9108 9.43875C36.8625 9.48667 36.7658 9.53457 36.6692 9.58249L35.1227 12.7447L34.8327 10.9241L35.2677 10.2054C35.2193 10.2054 35.171 10.2054 35.1227 10.2533C34.9777 10.3012 34.8327 10.3012 34.6877 10.3012C34.5911 10.3012 34.5428 10.3012 34.4461 10.3012C34.1078 10.3012 33.8179 10.2533 33.5279 10.2054L34.0112 10.9241L33.7212 12.7447L32.0297 9.43875C31.9331 9.39084 31.8848 9.29503 31.7881 9.24712L31.7398 9.29502C30.5799 10.3012 30 11.6427 29.7584 12.7926C28.6952 11.6427 28.0186 10.1095 28.0186 8.4326C28.0186 4.88708 30.9182 1.96443 34.5427 1.96443C38.119 1.96443 41.0669 4.83917 41.0669 8.4326C41.0186 10.2054 40.2454 11.8344 39.0372 12.9843Z" fill="#AC8EF9"/>
<path d="M29.0818 26.4956C27.5837 26.4956 26.3271 27.7413 26.3755 29.2745C26.3755 30.7598 27.632 32.0055 29.1785 31.9576C30.6766 31.9576 31.9331 30.7119 31.8848 29.1787C31.8364 27.6934 30.6283 26.4477 29.0818 26.4956Z" fill="#AC8EF9"/>
</svg>
