<svg width="66" height="66" viewBox="0 0 66 66" fill="none" xmlns="http://www.w3.org/2000/svg">
<path d="M39.7032 29.9062C39.7032 30.3165 39.5402 30.71 39.2501 31C38.96 31.2901 38.5665 31.4531 38.1563 31.4531H31.4531V38.1562C31.4531 38.5665 31.2902 38.96 31.0001 39.2501C30.71 39.5401 30.3165 39.7031 29.9063 39.7031C29.496 39.7031 29.1026 39.5401 28.8125 39.2501C28.5224 38.96 28.3594 38.5665 28.3594 38.1562V31.4531H21.6563C21.246 31.4531 20.8526 31.2901 20.5625 31C20.2724 30.71 20.1094 30.3165 20.1094 29.9062C20.1094 29.496 20.2724 29.1025 20.5625 28.8124C20.8526 28.5223 21.246 28.3594 21.6563 28.3594H28.3594V21.6562C28.3594 21.246 28.5224 20.8525 28.8125 20.5624C29.1026 20.2723 29.496 20.1094 29.9063 20.1094C30.3165 20.1094 30.71 20.2723 31.0001 20.5624C31.2902 20.8525 31.4531 21.246 31.4531 21.6562V28.3594H38.1563C38.5665 28.3594 38.96 28.5223 39.2501 28.8124C39.5402 29.1025 39.7032 29.496 39.7032 29.9062ZM58.8328 58.8328C58.6932 58.9795 58.5252 59.0962 58.3391 59.176C58.1529 59.2557 57.9525 59.2969 57.75 59.2969C57.5475 59.2969 57.3471 59.2557 57.161 59.176C56.9749 59.0962 56.8069 58.9795 56.6672 58.8328L45.1688 47.3602C40.6278 51.3326 34.7207 53.3847 28.6949 53.0831C22.6692 52.7814 16.9965 50.1497 12.8749 45.7437C8.75331 41.3377 6.50544 35.5022 6.60602 29.4698C6.70659 23.4373 9.14774 17.6801 13.4139 13.4139C17.6801 9.14771 23.4374 6.70656 29.4698 6.60599C35.5023 6.50541 41.3377 8.75328 45.7437 12.8749C50.1498 16.9965 52.7815 22.6691 53.0831 28.6949C53.3847 34.7207 51.3326 40.6278 47.3602 45.1687L58.8328 56.6672C58.9795 56.8068 59.0962 56.9748 59.176 57.161C59.2558 57.3471 59.2969 57.5475 59.2969 57.75C59.2969 57.9525 59.2558 58.1529 59.176 58.339C59.0962 58.5252 58.9795 58.6932 58.8328 58.8328ZM50.0157 29.9062C50.0157 25.929 48.8363 22.041 46.6266 18.7341C44.417 15.4271 41.2763 12.8496 37.6018 11.3276C33.9273 9.80557 29.884 9.40734 25.9831 10.1833C22.0823 10.9592 18.4991 12.8744 15.6868 15.6868C12.8745 18.4991 10.9592 22.0823 10.1833 25.9831C9.40737 29.8839 9.8056 33.9273 11.3276 37.6018C12.8497 41.2763 15.4271 44.4169 18.7341 46.6266C22.0411 48.8362 25.929 50.0156 29.9063 50.0156C35.2375 50.0088 40.3485 47.888 44.1182 44.1182C47.888 40.3484 50.0088 35.2375 50.0157 29.9062Z" fill="white"/>
</svg>
