<svg width="20" height="20" viewBox="0 0 20 20" fill="none" xmlns="http://www.w3.org/2000/svg">
<path d="M16.3703 3.6168C15.5413 2.78394 14.5542 2.12364 13.4663 1.67438C12.3784 1.22513 11.2116 0.9959 10.0339 1.00006C5.09882 1.00006 1.07685 5.00279 1.07233 9.91678C1.07233 11.4906 1.48594 13.0218 2.26683 14.3774L1 19L5.75088 17.7603C7.06517 18.4723 8.53759 18.8455 10.0339 18.8459H10.0384C14.9746 18.8459 18.9955 14.8431 19 9.92465C19.0011 8.75246 18.7693 7.59162 18.3177 6.50903C17.8662 5.42643 17.204 4.44348 16.3692 3.6168H16.3703ZM10.0339 17.3361C8.69927 17.3366 7.38916 16.979 6.24133 16.3011L5.97011 16.1391L3.15168 16.8749L3.90432 14.1378L3.72803 13.8554C2.98195 12.6745 2.58737 11.3073 2.59003 9.91228C2.59003 5.83304 5.93169 2.5053 10.0384 2.5053C11.0168 2.50355 11.9858 2.69461 12.8896 3.06745C13.7935 3.44029 14.6142 3.98755 15.3046 4.67767C15.9974 5.3651 16.5466 6.18227 16.9206 7.08205C17.2945 7.98183 17.4858 8.94641 17.4834 9.92015C17.4789 14.014 14.1372 17.3361 10.0339 17.3361ZM14.1192 11.7854C13.8965 11.674 12.797 11.1351 12.5902 11.0587C12.3845 10.9855 12.2342 10.9473 12.0873 11.17C11.937 11.3916 11.5075 11.8968 11.3787 12.0419C11.2499 12.1915 11.1165 12.2084 10.8928 12.0981C10.6701 11.9856 9.94801 11.7516 9.09367 10.99C8.42692 10.3994 7.98054 9.66815 7.84719 9.44653C7.71836 9.22378 7.83475 9.10453 7.94663 8.99316C8.04495 8.89416 8.16926 8.73216 8.28114 8.60391C8.39415 8.47566 8.43144 8.38116 8.5049 8.23266C8.57835 8.08191 8.54332 7.95366 8.48794 7.84228C8.43144 7.73091 7.98506 6.63179 7.79633 6.18854C7.61552 5.75092 7.43131 5.81167 7.29344 5.80604C7.16461 5.79817 7.01431 5.79817 6.86401 5.79817C6.75051 5.80097 6.63882 5.82711 6.53594 5.87493C6.43307 5.92274 6.34123 5.99121 6.2662 6.07604C6.06052 6.29879 5.48531 6.83766 5.48531 7.93678C5.48531 9.03591 6.28767 10.0923 6.40068 10.2419C6.51143 10.3915 7.97602 12.6404 10.2238 13.6079C10.7549 13.8385 11.173 13.9746 11.4996 14.0781C12.0364 14.2491 12.5212 14.2233 12.9077 14.1681C13.3371 14.1029 14.231 13.6281 14.4198 13.1073C14.6051 12.5853 14.6051 12.1398 14.5486 12.0464C14.4932 11.9519 14.3429 11.8968 14.1192 11.7854Z" fill="white"/>
</svg>
