<svg width="54" height="54" viewBox="0 0 54 54" fill="none" xmlns="http://www.w3.org/2000/svg">
<path d="M12.5656 13.4932C11.6961 13.4932 11.0311 14.2093 11.0311 15.0276V15.5903H18.192V15.0276C18.192 14.1581 17.4759 13.4932 16.6575 13.4932H12.5656Z" fill="#AC8EF9"/>
<mask id="path-2-inside-1_37_59" fill="white">
<path d="M21.8919 28.8243C21.8919 31.8269 24.3243 34.2973 27.3649 34.2973C30.3674 34.2973 32.8379 31.8649 32.8379 28.8243C32.8379 25.8218 30.4054 23.3513 27.3649 23.3513C24.3243 23.3513 21.8919 25.7838 21.8919 28.8243ZM31.8497 28.8243C31.8497 30.0785 31.3556 31.1807 30.5194 32.0169C29.7213 32.815 28.5811 33.3471 27.3269 33.3471C26.0726 33.3471 24.9705 32.853 24.1723 32.0169C23.3742 31.2187 22.8421 30.0785 22.8421 28.8243C22.8421 27.5701 23.3362 26.4679 24.1723 25.6318C24.9705 24.8336 26.1107 24.3015 27.3269 24.3015C28.5811 24.3015 29.6833 24.7956 30.5194 25.6318C31.3556 26.4679 31.8497 27.5701 31.8497 28.8243Z"/>
</mask>
<path d="M24.1723 32.0169L24.8957 31.3264L24.8876 31.318L24.8794 31.3098L24.1723 32.0169ZM20.8919 28.8243C20.8919 32.3746 23.7675 35.2973 27.3649 35.2973V33.2973C24.8811 33.2973 22.8919 31.2791 22.8919 28.8243H20.8919ZM27.3649 35.2973C30.9152 35.2973 33.8379 32.4217 33.8379 28.8243H31.8379C31.8379 31.3081 29.8197 33.2973 27.3649 33.2973V35.2973ZM33.8379 28.8243C33.8379 25.274 30.9622 22.3513 27.3649 22.3513V24.3513C29.8486 24.3513 31.8379 26.3695 31.8379 28.8243H33.8379ZM27.3649 22.3513C23.7721 22.3513 20.8919 25.2315 20.8919 28.8243H22.8919C22.8919 26.3361 24.8766 24.3513 27.3649 24.3513V22.3513ZM30.8497 28.8243C30.8497 29.8005 30.4702 30.6519 29.8123 31.3098L31.2265 32.724C32.241 31.7096 32.8497 30.3566 32.8497 28.8243H30.8497ZM29.8123 31.3098C29.188 31.9341 28.2971 32.3471 27.3269 32.3471V34.3471C28.8651 34.3471 30.2546 33.6959 31.2265 32.724L29.8123 31.3098ZM27.3269 32.3471C26.3468 32.3471 25.5057 31.9655 24.8957 31.3264L23.449 32.7074C24.4352 33.7406 25.7985 34.3471 27.3269 34.3471V32.3471ZM24.8794 31.3098C24.2551 30.6854 23.8421 29.7945 23.8421 28.8243H21.8421C21.8421 30.3626 22.4933 31.7521 23.4652 32.724L24.8794 31.3098ZM23.8421 28.8243C23.8421 27.8481 24.2215 26.9967 24.8794 26.3389L23.4652 24.9246C22.4508 25.9391 21.8421 27.2921 21.8421 28.8243H23.8421ZM24.8794 26.3389C25.5072 25.7111 26.3991 25.3015 27.3269 25.3015V23.3015C25.8222 23.3015 24.4338 23.9561 23.4652 24.9246L24.8794 26.3389ZM27.3269 25.3015C28.3031 25.3015 29.1545 25.681 29.8123 26.3389L31.2265 24.9246C30.2121 23.9102 28.8591 23.3015 27.3269 23.3015V25.3015ZM29.8123 26.3389C30.4702 26.9967 30.8497 27.8481 30.8497 28.8243H32.8497C32.8497 27.2921 32.241 25.9391 31.2265 24.9246L29.8123 26.3389Z" fill="#AC8EF9" mask="url(#path-2-inside-1_37_59)"/>
<path d="M34.7644 16.869C34.2529 14.7208 32.3604 13.1351 30.1099 13.1351H24.3811C22.0794 13.1351 20.1869 14.7208 19.7265 16.869H10.5708C8.7806 16.869 7.29727 18.3012 7.29727 20.1426V37.2264C7.29727 39.0167 8.7806 40.5 10.5708 40.5H44.0224C45.8127 40.5 47.296 39.0678 47.296 37.2264V20.1426C47.296 18.3524 45.8127 16.869 44.0224 16.869H34.7644ZM27.2455 35.9989C23.2047 35.9989 19.88 32.7253 19.88 28.6334C19.88 24.5926 23.1535 21.2679 27.2455 21.2679C31.2863 21.2679 34.611 24.5414 34.611 28.6334C34.5598 32.7253 31.2863 35.9989 27.2455 35.9989ZM42.3857 20.296H38.9587C38.6006 20.296 38.3449 20.0403 38.3449 19.6822C38.3449 19.3242 38.6006 19.0684 38.9587 19.0684H42.3857C42.7437 19.0684 42.9995 19.3242 42.9995 19.6822C42.9995 20.0403 42.6926 20.296 42.3857 20.296Z" fill="#AC8EF9"/>
</svg>
