<svg width="54" height="54" viewBox="0 0 54 54" fill="none" xmlns="http://www.w3.org/2000/svg">
<path d="M46.2501 18.9836V37.7642L34.9566 28.3613L46.2501 18.9836Z" fill="#AC8EF9"/>
<path d="M11.2603 13.1351H43.2503C44.7376 13.1351 45.9728 14.2191 46.1997 15.6308L31.2761 28.0336L28.7804 30.1007C27.9233 30.8065 26.562 30.8065 25.7049 30.1007L23.0832 27.9327L8.2856 15.6308C8.53769 14.2191 9.77293 13.1351 11.2603 13.1351Z" fill="#AC8EF9"/>
<path d="M8.26031 37.7642V18.9836L19.5539 28.3613L8.26031 37.7642Z" fill="#AC8EF9"/>
<path d="M23.6883 31.8149L25.705 33.5039C26.5621 34.2098 27.9234 34.2098 28.7805 33.5039L31.3769 31.3359L32.8895 30.0755L45.0906 40.2095C44.5864 40.6128 43.9309 40.8649 43.2251 40.8649H11.2351C10.5293 40.8649 9.87383 40.6128 9.36965 40.2095L21.5707 30.0755L23.6883 31.8149Z" fill="#AC8EF9"/>
</svg>
