<svg width="54" height="54" viewBox="0 0 54 54" fill="none" xmlns="http://www.w3.org/2000/svg">
<path d="M26.3877 38.3829C26.3344 38.4354 26.2812 38.488 26.1747 38.5406C26.1214 38.5932 26.0149 38.6458 25.9617 38.6983C25.8019 38.8035 25.6422 38.9086 25.5357 39.0138L22.3941 45.4282L21.7551 41.7478L22.7136 40.2757C22.6071 40.2757 22.5006 40.3282 22.3941 40.3282C22.0746 40.3808 21.8084 40.4334 21.4889 40.4334C21.3292 40.4334 21.1694 40.4334 21.0097 40.4334C20.3707 40.4334 19.7317 40.3808 19.146 40.2231L20.1045 41.7478L19.5188 45.4807L16.0044 38.6983C15.8447 38.5932 15.6849 38.4354 15.5252 38.2777L15.472 38.3303C12.0641 41.222 11.1589 45.6911 10.9459 48.057H30.8072C30.0085 41.222 27.1331 38.8561 26.3877 38.3829Z" fill="#AC8EF9"/>
<path d="M20.9031 25.0809C16.7498 25.0809 13.3952 28.3932 13.3952 32.4942C13.3952 36.5952 16.7498 39.9076 20.9031 39.9076C25.0564 39.9076 28.411 36.5952 28.411 32.4942C28.4642 28.3932 25.0564 25.0809 20.9031 25.0809Z" fill="#AC8EF9"/>
<path d="M42.4683 43.2199C42.5215 43.1673 42.5215 43.1673 42.5215 43.1148C42.5215 43.0622 42.4683 43.0096 42.415 43.0096C42.415 43.0096 41.1371 42.3787 40.8176 41.4849C41.2436 41.9055 41.776 42.1158 42.4683 42.2209C42.5215 42.2209 42.5748 42.221 42.628 42.1684C42.6813 42.1158 42.6813 42.0632 42.628 42.0107C41.989 40.4334 41.6696 38.5932 41.3501 36.753C41.1371 35.6489 40.9773 34.5973 40.7111 33.5984C40.6046 33.1778 40.4981 32.7572 40.3384 32.3891C40.1786 31.9159 39.9656 31.4953 39.6994 31.1273C39.4332 30.7066 38.6345 29.6551 36.9305 29.3396C36.3448 29.1819 35.7591 29.0768 35.1734 29.0768C33.9487 29.0768 32.8305 29.4974 31.9253 30.1809C31.0733 30.7067 30.4344 31.4953 29.9551 32.652C29.6356 33.2829 29.4227 34.019 29.3162 34.7551C29.2629 34.9654 29.2629 35.1757 29.2629 35.3334C29.2097 35.5963 29.1564 35.8066 29.1564 36.0695C28.9967 37.2788 29.1032 38.856 29.3694 40.3808C30.3811 41.9581 31.3396 44.4292 31.7123 48.1622H43.054C42.9475 47.1106 42.7345 45.3756 41.8825 43.6405C42.202 43.3776 42.4683 43.2725 42.4683 43.2199ZM39.0072 42.3261C38.9007 42.4313 37.1435 43.588 37.1435 43.588L37.9955 44.7447L35.2266 46.9003L32.4578 44.7447L33.3097 43.588C33.3097 43.588 31.5525 42.4313 31.4461 42.3261C31.2863 42.1158 32.2448 41.222 32.2448 41.222L35.2266 46.9003L38.2085 41.222C38.2085 41.222 39.1137 42.1684 39.0072 42.3261Z" fill="#AC8EF9"/>
<path d="M33.6294 5.83783H13.5551C12.4369 5.83783 11.585 6.73161 11.585 7.78315V18.4563C11.585 19.5604 12.4902 20.4016 13.5551 20.4016H21.6487L21.3825 23.7665L24.3643 20.4016H33.6826C34.8008 20.4016 35.6528 19.5078 35.6528 18.4563V7.78315C35.6528 6.67903 34.7476 5.83783 33.6294 5.83783ZM24.5241 15.3017H14.4603C14.2473 15.3017 14.0876 15.1439 14.0876 14.9336C14.0876 14.7233 14.2473 14.5656 14.4603 14.5656H24.5241C24.7371 14.5656 24.8968 14.7233 24.8968 14.9336C24.8436 15.1439 24.6838 15.3017 24.5241 15.3017ZM32.4579 12.9357H14.4603C14.2473 12.9357 14.0876 12.778 14.0876 12.5677C14.0876 12.3573 14.2473 12.1996 14.4603 12.1996H32.4579C32.6709 12.1996 32.8307 12.3573 32.8307 12.5677C32.8307 12.778 32.6709 12.9357 32.4579 12.9357ZM32.4579 10.5697H14.4603C14.2473 10.5697 14.0876 10.412 14.0876 10.2017C14.0876 9.99139 14.2473 9.83365 14.4603 9.83365H32.4579C32.6709 9.83365 32.8307 9.99139 32.8307 10.2017C32.8307 10.412 32.6709 10.5697 32.4579 10.5697Z" fill="#AC8EF9"/>
<path d="M41.0839 15.3017H36.5046V19.1398C36.5046 20.2965 35.5461 21.2428 34.3747 21.2428H28.3577V23.8191C28.3577 24.5026 28.8902 25.0284 29.5824 25.0284H35.7059L37.5695 27.1314L37.4098 25.0284H41.0839C41.7761 25.0284 42.3085 24.5026 42.3085 23.8191V16.5109C42.3618 15.8274 41.7761 15.3017 41.0839 15.3017Z" fill="#AC8EF9"/>
</svg>
