<svg width="54" height="54" viewBox="0 0 54 54" fill="none" xmlns="http://www.w3.org/2000/svg">
<path d="M32.0665 19.1485C32.0665 19.0649 32.0249 18.9813 32.0249 18.8978C32.0249 18.856 31.9832 18.7724 31.9832 18.7307L31.9416 18.5218C31.9416 18.48 31.9 18.3964 31.9 18.3547C31.8584 18.2711 31.8584 18.1875 31.8168 18.1458L31.7335 17.9787C31.7335 17.9369 31.6919 17.8951 31.6919 17.8951C31.6503 17.8115 31.6087 17.6862 31.5671 17.6027L31.5254 17.4773C31.5254 17.4773 31.5254 17.4355 31.4838 17.4355C31.4006 17.3102 31.3589 17.1849 31.2757 17.1013C31.2757 17.1013 31.2341 17.0595 31.2341 17.0178C31.1508 16.8506 31.026 16.7253 30.9428 16.6417L30.9011 16.6C30.8179 16.4746 30.693 16.3493 30.5682 16.224L30.5266 16.1822C29.5277 15.1795 28.1542 14.5946 26.6976 14.5946H26.6143C23.6177 14.5946 21.1622 17.0595 21.1622 20.0676C21.1622 23.0756 23.6177 25.5406 26.6143 25.5406H26.6976C28.1542 25.5406 29.4861 24.9557 30.5266 23.9112C30.6514 23.7859 30.7763 23.6605 30.8595 23.5352C30.8595 23.4934 30.9011 23.4934 30.9011 23.4934C30.9844 23.3681 31.0676 23.2427 31.1509 23.1174C31.1925 23.0756 31.1925 23.0338 31.1925 23.0338C31.2757 22.9085 31.3589 22.7832 31.4006 22.6578C31.4006 22.6578 31.4006 22.6161 31.4422 22.6161C31.4422 22.5743 31.4838 22.5743 31.4838 22.5325L31.5254 22.4907C31.567 22.4072 31.6087 22.3236 31.6503 22.1983C31.6503 22.1565 31.6919 22.1147 31.6919 22.1147L31.7751 21.9476C31.8168 21.864 31.8167 21.7805 31.8584 21.7387C31.8584 21.6969 31.9 21.6552 31.9 21.5716L31.9416 21.3627C31.9416 21.3209 31.9832 21.2374 31.9832 21.1956C31.9832 21.112 32.0249 21.0285 32.0249 20.9449L32.0665 20.736C32.0665 20.6943 32.0665 20.6525 32.0665 20.6107C32.0665 20.4436 32.1081 20.2347 32.1081 20.0676C32.1081 19.9005 32.1081 19.6916 32.0665 19.5245C32.0665 19.4827 32.0665 19.4409 32.0665 19.3991V19.1485Z" fill="#AC8EF9"/>
<path d="M37.8988 28.6216C37.9479 28.5233 38.0462 28.425 38.1444 28.2776C38.1444 28.2776 38.1445 28.2285 38.1936 28.2285C38.341 27.8845 38.6358 27.4423 38.6358 27.3932C39.6676 25.3296 40.2081 23.1185 40.2081 20.8092C40.2081 20.5635 40.2081 20.3179 40.2081 20.0722C40.2081 19.9739 40.2081 19.8757 40.2081 19.7774V19.5809C40.2081 19.5317 40.2081 19.4335 40.2081 19.3843C40.2081 19.2861 40.2081 19.1878 40.159 19.1387V18.9421C40.159 18.8438 40.1589 18.7456 40.1098 18.6964C40.1098 18.6473 40.1098 18.549 40.0607 18.4999L40.0116 18.3034C40.0116 18.2051 39.9624 18.1068 39.9624 18.0086C39.9624 17.9103 39.9133 17.8612 39.9133 17.7629L39.8641 17.5664C39.8641 17.4681 39.815 17.419 39.815 17.3207C39.7659 17.2224 39.7659 17.1242 39.7167 17.0259L39.6676 16.8293C39.6676 16.7802 39.6185 16.7311 39.6185 16.6819C39.5693 16.5837 39.5694 16.4363 39.5202 16.338L39.4711 16.1906C39.4711 16.1415 39.422 16.0923 39.422 16.0432C39.3728 15.9449 39.3237 15.7975 39.3237 15.6993L39.2746 15.5519C39.2746 15.5027 39.2254 15.4536 39.2254 15.4045C39.1763 15.3062 39.1271 15.1588 39.078 15.0605L39.0289 14.9131C39.0289 14.864 38.9797 14.8148 38.9797 14.8148C38.9306 14.6674 38.8323 14.52 38.7341 14.3235L38.6849 14.2252C38.5867 14.0778 38.5375 13.9304 38.4393 13.7339L38.3901 13.6356C38.2918 13.4882 38.1936 13.2917 38.0953 13.1443L38.0462 13.0951C37.9479 12.9477 37.8497 12.8003 37.7023 12.6038L37.6531 12.5547C37.5548 12.4073 37.4075 12.2107 37.3092 12.0633C37.3092 12.0633 37.3092 12.0142 37.26 12.0142C37.1126 11.8668 37.0144 11.7194 36.867 11.5228C36.7196 11.3754 36.5721 11.228 36.4247 11.0806C33.968 8.62393 30.5778 7.2973 26.647 7.2973C18.6873 7.2973 13.1351 12.8495 13.1351 20.8092C13.1351 23.2659 13.7739 25.7226 14.9531 27.8354L15.1496 28.2285V28.2776L15.4936 28.8181C15.5427 28.8672 15.5918 28.9164 15.5918 28.9655L24.2395 43.5092L26.254 46.8995C26.3522 47.096 26.5488 47.1943 26.7453 47.1943C26.9419 47.1943 27.1384 47.096 27.2367 46.8995L29.202 43.5092L37.6531 28.9655C37.7514 28.8181 37.8496 28.7198 37.8988 28.6216ZM34.2629 20.9566C34.2629 21.0058 34.2628 21.104 34.2137 21.1532L34.1646 21.3497C34.1646 21.448 34.1155 21.5954 34.1155 21.6936C34.1155 21.7919 34.0663 21.8902 34.0663 21.9884L34.0172 22.185C34.0172 22.2832 33.968 22.3815 33.968 22.4306C33.9189 22.5289 33.8698 22.6763 33.8698 22.7746L33.8206 22.9711C33.8206 23.0203 33.7715 23.1185 33.7715 23.1677C33.7224 23.3151 33.6241 23.4625 33.575 23.5607L33.5258 23.659C33.5258 23.7081 33.4767 23.7573 33.4767 23.8064C33.3784 23.9538 33.2802 24.1503 33.1819 24.2977C33.1328 24.3469 33.1328 24.396 33.0836 24.4452C32.9854 24.6417 32.838 24.7891 32.6906 24.9365C32.6906 24.9856 32.6414 24.9856 32.6414 24.9856C32.494 25.1822 32.3466 25.3296 32.1501 25.5261C30.7252 27.0001 28.8089 27.7863 26.7944 27.8354C26.7453 27.8354 26.7453 27.8354 26.6962 27.8354C22.4706 27.8354 19.0312 24.396 19.0312 20.1705C19.0312 15.9449 22.4706 12.5055 26.6962 12.5055H26.7944C28.8089 12.5055 30.7252 13.3408 32.1501 14.7657L32.1992 14.8148C32.3957 15.0114 32.5432 15.1588 32.6414 15.3062L32.6906 15.3553C32.838 15.5519 32.9362 15.6993 33.0836 15.8958C33.0836 15.9449 33.1328 15.9449 33.1328 15.9941C33.2802 16.1906 33.3784 16.338 33.4276 16.5345C33.4767 16.5837 33.4767 16.6328 33.4767 16.6819L33.5258 16.7311C33.6241 16.9276 33.6732 17.0259 33.7715 17.2224C33.8206 17.2716 33.8206 17.3698 33.8206 17.419L33.8698 17.6155C33.9189 17.7138 33.968 17.8612 33.968 17.9594C34.0172 18.0577 34.0172 18.1068 34.0172 18.2051L34.0663 18.4016C34.1154 18.4999 34.1155 18.5982 34.1155 18.6964C34.1155 18.7947 34.1646 18.9421 34.1646 19.0404L34.2137 19.2369C34.2137 19.2861 34.2137 19.3843 34.2629 19.4335C34.312 19.6791 34.312 19.9739 34.312 20.2196C34.2628 20.4653 34.2629 20.7109 34.2629 20.9566Z" fill="#AC8EF9"/>
</svg>
