<svg width="54" height="54" viewBox="0 0 54 54" fill="none" xmlns="http://www.w3.org/2000/svg">
<path d="M12.1529 9.48648V44.1742L41.3361 44.2216V42.371V9.53392L12.1529 9.48648ZM37.6348 29.1792V29.0843V36.0598H15.8067V31.2197V31.2671V13.0928H37.6348V13.1403V29.1792Z" fill="#AC8EF9"/>
<path d="M19.1284 16.4145C17.9421 16.4145 16.993 17.3636 16.993 18.5499C16.993 19.7362 17.9421 20.6852 19.1284 20.6852C20.3147 20.6852 21.2638 19.7362 21.2638 18.5499C21.2638 17.3636 20.3147 16.4145 19.1284 16.4145Z" fill="#AC8EF9"/>
<path d="M24.5855 29.7961L20.4571 25.8575L16.9456 30.7451V35.1582H36.3537V28.7521L29.9951 21.8241L24.5855 29.7961Z" fill="#AC8EF9"/>
<path d="M37.6347 13.1403H15.8541L37.6347 13.1878V13.1403Z" fill="#AC8EF9"/>
</svg>
